%TF.GenerationSoftware,KiCad,Pcbnew,5.1.6-c6e7f7d~87~ubuntu18.04.1*%
%TF.CreationDate,2021-10-05T10:23:35-04:00*%
%TF.ProjectId,boosta,626f6f73-7461-42e6-9b69-6361645f7063,rev?*%
%TF.SameCoordinates,Original*%
%TF.FileFunction,Copper,L2,Bot*%
%TF.FilePolarity,Positive*%
%FSLAX46Y46*%
G04 Gerber Fmt 4.6, Leading zero omitted, Abs format (unit mm)*
G04 Created by KiCad (PCBNEW 5.1.6-c6e7f7d~87~ubuntu18.04.1) date 2021-10-05 10:23:35*
%MOMM*%
%LPD*%
G01*
G04 APERTURE LIST*
%TA.AperFunction,ComponentPad*%
%ADD10C,2.600000*%
%TD*%
%TA.AperFunction,ComponentPad*%
%ADD11R,2.600000X2.600000*%
%TD*%
%TA.AperFunction,ComponentPad*%
%ADD12O,1.600000X1.600000*%
%TD*%
%TA.AperFunction,ComponentPad*%
%ADD13C,1.600000*%
%TD*%
%TA.AperFunction,ComponentPad*%
%ADD14O,2.800000X2.800000*%
%TD*%
%TA.AperFunction,ComponentPad*%
%ADD15R,2.800000X2.800000*%
%TD*%
%TA.AperFunction,ComponentPad*%
%ADD16R,1.600000X1.600000*%
%TD*%
%TA.AperFunction,ComponentPad*%
%ADD17O,1.200000X1.750000*%
%TD*%
%TA.AperFunction,ComponentPad*%
%ADD18O,1.700000X1.700000*%
%TD*%
%TA.AperFunction,ComponentPad*%
%ADD19R,1.700000X1.700000*%
%TD*%
%TA.AperFunction,ComponentPad*%
%ADD20C,2.010000*%
%TD*%
%TA.AperFunction,ComponentPad*%
%ADD21C,0.900000*%
%TD*%
%TA.AperFunction,ComponentPad*%
%ADD22C,12.800000*%
%TD*%
%TA.AperFunction,ComponentPad*%
%ADD23C,1.524000*%
%TD*%
%TA.AperFunction,ComponentPad*%
%ADD24R,1.524000X1.524000*%
%TD*%
%TA.AperFunction,ComponentPad*%
%ADD25C,3.500000*%
%TD*%
%TA.AperFunction,ViaPad*%
%ADD26C,0.800000*%
%TD*%
%TA.AperFunction,Conductor*%
%ADD27C,0.700000*%
%TD*%
G04 APERTURE END LIST*
D10*
%TO.P,J4,2*%
%TO.N,GND*%
X97108000Y-87376000D03*
D11*
%TO.P,J4,1*%
%TO.N,Net-(F1-Pad2)*%
X102108000Y-87376000D03*
%TD*%
D12*
%TO.P,R4,2*%
%TO.N,GND*%
X110998000Y-149352000D03*
D13*
%TO.P,R4,1*%
%TO.N,Net-(J6-Pad2)*%
X98298000Y-149352000D03*
%TD*%
D12*
%TO.P,R3,2*%
%TO.N,5VBOOST*%
X103378000Y-134366000D03*
D13*
%TO.P,R3,1*%
%TO.N,Net-(J6-Pad2)*%
X103378000Y-121666000D03*
%TD*%
D12*
%TO.P,R2,2*%
%TO.N,GND*%
X110998000Y-145034000D03*
D13*
%TO.P,R2,1*%
%TO.N,Net-(J6-Pad3)*%
X98298000Y-145034000D03*
%TD*%
D12*
%TO.P,R1,2*%
%TO.N,Net-(J6-Pad3)*%
X98806000Y-134366000D03*
D13*
%TO.P,R1,1*%
%TO.N,5VBOOST*%
X98806000Y-121666000D03*
%TD*%
D14*
%TO.P,D1,2*%
%TO.N,Net-(C2-Pad1)*%
X92202000Y-149352000D03*
D15*
%TO.P,D1,1*%
%TO.N,VUSB*%
X92202000Y-136652000D03*
%TD*%
D13*
%TO.P,C2,2*%
%TO.N,GND*%
X91440000Y-123404000D03*
D16*
%TO.P,C2,1*%
%TO.N,Net-(C2-Pad1)*%
X91440000Y-120904000D03*
%TD*%
D13*
%TO.P,C1,2*%
%TO.N,GND*%
X91440000Y-130262000D03*
D16*
%TO.P,C1,1*%
%TO.N,Net-(C1-Pad1)*%
X91440000Y-127762000D03*
%TD*%
%TO.P,J2,1*%
%TO.N,LIPO*%
%TA.AperFunction,ComponentPad*%
G36*
G01*
X54956000Y-89290999D02*
X54956000Y-90541001D01*
G75*
G02*
X54706001Y-90791000I-249999J0D01*
G01*
X54005999Y-90791000D01*
G75*
G02*
X53756000Y-90541001I0J249999D01*
G01*
X53756000Y-89290999D01*
G75*
G02*
X54005999Y-89041000I249999J0D01*
G01*
X54706001Y-89041000D01*
G75*
G02*
X54956000Y-89290999I0J-249999D01*
G01*
G37*
%TD.AperFunction*%
D17*
%TO.P,J2,2*%
%TO.N,GND*%
X52356000Y-89916000D03*
%TD*%
D18*
%TO.P,J1,4*%
%TO.N,N/C*%
X85540000Y-149234000D03*
%TO.P,J1,3*%
%TO.N,5VBOOST*%
X83000000Y-149234000D03*
%TO.P,J1,2*%
%TO.N,GND*%
X80460000Y-149234000D03*
D19*
%TO.P,J1,1*%
%TO.N,OUT*%
X77920000Y-149234000D03*
%TD*%
D20*
%TO.P,F1,2*%
%TO.N,Net-(F1-Pad2)*%
X102830000Y-139770000D03*
%TO.P,F1,1*%
%TO.N,Net-(C1-Pad1)*%
X113030000Y-140970000D03*
%TD*%
D18*
%TO.P,J7,11*%
%TO.N,GND*%
X67140000Y-149260000D03*
%TO.P,J7,10*%
%TO.N,LIPO*%
X64600000Y-149260000D03*
%TO.P,J7,9*%
%TO.N,GND*%
X62060000Y-149260000D03*
%TO.P,J7,8*%
%TO.N,OUT*%
X59520000Y-149260000D03*
%TO.P,J7,7*%
%TO.N,N/C*%
X56980000Y-149260000D03*
%TO.P,J7,6*%
X54440000Y-149260000D03*
%TO.P,J7,5*%
X51900000Y-149260000D03*
%TO.P,J7,4*%
X49360000Y-149260000D03*
%TO.P,J7,3*%
X46820000Y-149260000D03*
%TO.P,J7,2*%
%TO.N,GND*%
X44280000Y-149260000D03*
D19*
%TO.P,J7,1*%
%TO.N,VUSB*%
X41740000Y-149260000D03*
%TD*%
D21*
%TO.P,H2,1*%
%TO.N,Net-(F1-Pad2)*%
X117894113Y-82225887D03*
X114500000Y-80820000D03*
X111105887Y-82225887D03*
X109700000Y-85620000D03*
X111105887Y-89014113D03*
X114500000Y-90420000D03*
X117894113Y-89014113D03*
X119300000Y-85620000D03*
D22*
X114500000Y-85450000D03*
%TD*%
%TO.P,H1,1*%
%TO.N,GND*%
X38430000Y-85620000D03*
D21*
X43230000Y-85620000D03*
X41824113Y-89014113D03*
X38430000Y-90420000D03*
X35035887Y-89014113D03*
X33630000Y-85620000D03*
X35035887Y-82225887D03*
X38430000Y-80820000D03*
X41824113Y-82225887D03*
%TD*%
D23*
%TO.P,J6,4*%
%TO.N,GND*%
X108980000Y-123880000D03*
%TO.P,J6,3*%
%TO.N,Net-(J6-Pad3)*%
X108980000Y-126380000D03*
%TO.P,J6,2*%
%TO.N,Net-(J6-Pad2)*%
X108980000Y-128380000D03*
D24*
%TO.P,J6,1*%
%TO.N,5VBOOST*%
X108980000Y-130880000D03*
D25*
%TO.P,J6,5*%
%TO.N,GND*%
X111690000Y-133950000D03*
X111690000Y-120810000D03*
%TD*%
D18*
%TO.P,J3,3*%
%TO.N,Net-(C2-Pad1)*%
X78604000Y-122936000D03*
%TO.P,J3,2*%
%TO.N,GND*%
X78604000Y-125476000D03*
D19*
%TO.P,J3,1*%
%TO.N,Net-(C1-Pad1)*%
X78604000Y-128016000D03*
%TD*%
D26*
%TO.N,GND*%
X44330000Y-105530000D03*
X44280000Y-124290000D03*
X108458000Y-105664000D03*
X97790000Y-105156000D03*
X97108000Y-95678000D03*
%TO.N,Net-(J6-Pad3)*%
X98806000Y-126746000D03*
%TO.N,Net-(J6-Pad2)*%
X105918000Y-149352000D03*
X106426000Y-121666000D03*
%TO.N,LIPO*%
X85344000Y-100584000D03*
X86614000Y-107696000D03*
X64770000Y-110490000D03*
%TO.N,OUT*%
X60198000Y-144272000D03*
X77724000Y-144526000D03*
%TO.N,Net-(C1-Pad1)*%
X95758000Y-141986000D03*
X95250000Y-128016000D03*
%TO.N,5VBOOST*%
X103378000Y-124206000D03*
X99314000Y-124206000D03*
X103378000Y-130556000D03*
X103378000Y-136652000D03*
X83058000Y-140970000D03*
%TO.N,VUSB*%
X41148000Y-138938000D03*
%TD*%
D27*
%TO.N,GND*%
X44280000Y-105580000D02*
X44330000Y-105530000D01*
X44280000Y-149260000D02*
X44280000Y-124290000D01*
X44280000Y-124290000D02*
X44280000Y-105580000D01*
X111690000Y-120810000D02*
X108712000Y-117832000D01*
X108712000Y-117832000D02*
X108712000Y-105918000D01*
X108712000Y-105918000D02*
X108458000Y-105664000D01*
X97790000Y-105156000D02*
X97790000Y-96360000D01*
X97790000Y-96360000D02*
X97108000Y-95678000D01*
X111690000Y-133950000D02*
X111690000Y-120810000D01*
X91440000Y-123404000D02*
X92750000Y-124714000D01*
X92750000Y-124714000D02*
X92750000Y-124754000D01*
X92750000Y-124754000D02*
X93726000Y-125730000D01*
X93726000Y-125730000D02*
X93726000Y-129286000D01*
X92750000Y-130262000D02*
X91440000Y-130262000D01*
X93726000Y-129286000D02*
X92750000Y-130262000D01*
X110998000Y-149352000D02*
X110998000Y-145034000D01*
X111690000Y-133950000D02*
X111690000Y-136214000D01*
X111690000Y-136214000D02*
X110236000Y-137668000D01*
X110236000Y-144272000D02*
X110998000Y-145034000D01*
X110236000Y-137668000D02*
X110236000Y-144272000D01*
X108980000Y-123880000D02*
X108980000Y-121144000D01*
X109314000Y-120810000D02*
X111690000Y-120810000D01*
X108980000Y-121144000D02*
X109314000Y-120810000D01*
%TO.N,Net-(J6-Pad3)*%
X98298000Y-134874000D02*
X98806000Y-134366000D01*
X98298000Y-145034000D02*
X98298000Y-134874000D01*
X98806000Y-126746000D02*
X98806000Y-134366000D01*
%TO.N,Net-(J6-Pad2)*%
X108980000Y-128380000D02*
X107078000Y-128380000D01*
X107078000Y-128380000D02*
X106680000Y-128778000D01*
X106680000Y-128778000D02*
X106680000Y-148590000D01*
X106680000Y-148590000D02*
X105918000Y-149352000D01*
X106680000Y-128778000D02*
X106680000Y-121920000D01*
X106680000Y-121920000D02*
X106426000Y-121666000D01*
%TO.N,LIPO*%
X85344000Y-100584000D02*
X85344000Y-106426000D01*
X85344000Y-106426000D02*
X86614000Y-107696000D01*
X64770000Y-110490000D02*
X64262000Y-110998000D01*
X64262000Y-148922000D02*
X64600000Y-149260000D01*
X64262000Y-110998000D02*
X64262000Y-148922000D01*
%TO.N,OUT*%
X59520000Y-149260000D02*
X59520000Y-144950000D01*
X59520000Y-144950000D02*
X60198000Y-144272000D01*
X77724000Y-149038000D02*
X77920000Y-149234000D01*
X77724000Y-144526000D02*
X77724000Y-149038000D01*
%TO.N,Net-(F1-Pad2)*%
X114500000Y-85450000D02*
X114500000Y-96320000D01*
X114500000Y-96320000D02*
X101346000Y-109474000D01*
X101346000Y-138286000D02*
X102830000Y-139770000D01*
X101346000Y-109474000D02*
X101346000Y-138286000D01*
%TO.N,Net-(C2-Pad1)*%
X92202000Y-149352000D02*
X89154000Y-146304000D01*
X89154000Y-146304000D02*
X89154000Y-133350000D01*
X89154000Y-133350000D02*
X88138000Y-132334000D01*
X88138000Y-124206000D02*
X91440000Y-120904000D01*
X88138000Y-132334000D02*
X88138000Y-124206000D01*
%TO.N,Net-(C1-Pad1)*%
X95758000Y-141986000D02*
X95758000Y-131826000D01*
X95758000Y-131826000D02*
X95758000Y-128524000D01*
X95758000Y-128524000D02*
X95250000Y-128016000D01*
%TO.N,5VBOOST*%
X99314000Y-124206000D02*
X98552000Y-123444000D01*
X98552000Y-121920000D02*
X98806000Y-121666000D01*
X98552000Y-123444000D02*
X98552000Y-121920000D01*
X103378000Y-134366000D02*
X103378000Y-130556000D01*
X103378000Y-130556000D02*
X103378000Y-124206000D01*
X103378000Y-134366000D02*
X103378000Y-136652000D01*
X83058000Y-149176000D02*
X83000000Y-149234000D01*
X83058000Y-140970000D02*
X83058000Y-149176000D01*
%TO.N,VUSB*%
X41740000Y-139530000D02*
X41740000Y-149260000D01*
X41148000Y-138938000D02*
X41740000Y-139530000D01*
%TD*%
M02*
