%TF.GenerationSoftware,KiCad,Pcbnew,5.1.6-c6e7f7d~87~ubuntu18.04.1*%
%TF.CreationDate,2021-10-05T10:23:35-04:00*%
%TF.ProjectId,boosta,626f6f73-7461-42e6-9b69-6361645f7063,rev?*%
%TF.SameCoordinates,Original*%
%TF.FileFunction,Soldermask,Bot*%
%TF.FilePolarity,Negative*%
%FSLAX46Y46*%
G04 Gerber Fmt 4.6, Leading zero omitted, Abs format (unit mm)*
G04 Created by KiCad (PCBNEW 5.1.6-c6e7f7d~87~ubuntu18.04.1) date 2021-10-05 10:23:35*
%MOMM*%
%LPD*%
G01*
G04 APERTURE LIST*
%ADD10C,6.500000*%
%ADD11C,2.700000*%
%ADD12R,2.700000X2.700000*%
%ADD13C,2.490000*%
%ADD14C,3.550000*%
%ADD15O,1.700000X1.700000*%
%ADD16C,1.700000*%
%ADD17O,2.900000X2.900000*%
%ADD18R,2.900000X2.900000*%
%ADD19R,1.700000X1.700000*%
%ADD20O,1.300000X1.850000*%
%ADD21O,1.800000X1.800000*%
%ADD22R,1.800000X1.800000*%
%ADD23C,2.110000*%
%ADD24C,1.000000*%
%ADD25C,12.900000*%
%ADD26C,1.624000*%
%ADD27R,1.624000X1.624000*%
%ADD28C,3.600000*%
G04 APERTURE END LIST*
D10*
%TO.C,H5*%
X89408000Y-158750000D03*
%TD*%
%TO.C,H4*%
X63246000Y-158750000D03*
%TD*%
%TO.C,H6*%
X115570000Y-158750000D03*
%TD*%
%TO.C,H3*%
X37084000Y-158750000D03*
%TD*%
D11*
%TO.C,J4*%
X97108000Y-87376000D03*
D12*
X102108000Y-87376000D03*
%TD*%
D13*
%TO.C,BT1*%
X112460000Y-113530000D03*
D14*
X104130000Y-97530000D03*
X48930000Y-113530000D03*
%TD*%
D15*
%TO.C,R4*%
X110998000Y-149352000D03*
D16*
X98298000Y-149352000D03*
%TD*%
D15*
%TO.C,R3*%
X103378000Y-134366000D03*
D16*
X103378000Y-121666000D03*
%TD*%
D15*
%TO.C,R2*%
X110998000Y-145034000D03*
D16*
X98298000Y-145034000D03*
%TD*%
D15*
%TO.C,R1*%
X98806000Y-134366000D03*
D16*
X98806000Y-121666000D03*
%TD*%
D17*
%TO.C,D1*%
X92202000Y-149352000D03*
D18*
X92202000Y-136652000D03*
%TD*%
D16*
%TO.C,C2*%
X91440000Y-123404000D03*
D19*
X91440000Y-120904000D03*
%TD*%
D16*
%TO.C,C1*%
X91440000Y-130262000D03*
D19*
X91440000Y-127762000D03*
%TD*%
%TO.C,J2*%
G36*
G01*
X55006000Y-89261832D02*
X55006000Y-90570168D01*
G75*
G02*
X54735168Y-90841000I-270832J0D01*
G01*
X53976832Y-90841000D01*
G75*
G02*
X53706000Y-90570168I0J270832D01*
G01*
X53706000Y-89261832D01*
G75*
G02*
X53976832Y-88991000I270832J0D01*
G01*
X54735168Y-88991000D01*
G75*
G02*
X55006000Y-89261832I0J-270832D01*
G01*
G37*
D20*
X52356000Y-89916000D03*
%TD*%
D21*
%TO.C,J1*%
X85540000Y-149234000D03*
X83000000Y-149234000D03*
X80460000Y-149234000D03*
D22*
X77920000Y-149234000D03*
%TD*%
D23*
%TO.C,F1*%
X102830000Y-139770000D03*
X113030000Y-140970000D03*
%TD*%
D21*
%TO.C,J7*%
X67140000Y-149260000D03*
X64600000Y-149260000D03*
X62060000Y-149260000D03*
X59520000Y-149260000D03*
X56980000Y-149260000D03*
X54440000Y-149260000D03*
X51900000Y-149260000D03*
X49360000Y-149260000D03*
X46820000Y-149260000D03*
X44280000Y-149260000D03*
D22*
X41740000Y-149260000D03*
%TD*%
D24*
%TO.C,H2*%
X117894113Y-82225887D03*
X114500000Y-80820000D03*
X111105887Y-82225887D03*
X109700000Y-85620000D03*
X111105887Y-89014113D03*
X114500000Y-90420000D03*
X117894113Y-89014113D03*
X119300000Y-85620000D03*
D25*
X114500000Y-85450000D03*
%TD*%
%TO.C,H1*%
X38430000Y-85620000D03*
D24*
X43230000Y-85620000D03*
X41824113Y-89014113D03*
X38430000Y-90420000D03*
X35035887Y-89014113D03*
X33630000Y-85620000D03*
X35035887Y-82225887D03*
X38430000Y-80820000D03*
X41824113Y-82225887D03*
%TD*%
D26*
%TO.C,J6*%
X108980000Y-123880000D03*
X108980000Y-126380000D03*
X108980000Y-128380000D03*
D27*
X108980000Y-130880000D03*
D28*
X111690000Y-133950000D03*
X111690000Y-120810000D03*
%TD*%
D21*
%TO.C,J3*%
X78604000Y-122936000D03*
X78604000Y-125476000D03*
D22*
X78604000Y-128016000D03*
%TD*%
M02*
