M48
; DRILL file {KiCad 5.1.6-c6e7f7d~87~ubuntu18.04.1} date Tue Oct  5 10:28:45 2021
; FORMAT={-:-/ absolute / inch / decimal}
; #@! TF.CreationDate,2021-10-05T10:28:45-04:00
; #@! TF.GenerationSoftware,Kicad,Pcbnew,5.1.6-c6e7f7d~87~ubuntu18.04.1
; #@! TF.FileFunction,Plated,1,2,PTH
FMAT,2
INCH
T1C0.0157
T2C0.0236
T3C0.0295
T4C0.0315
T5C0.0362
T6C0.0394
T7C0.0398
T8C0.0512
T9C0.0551
T10C0.0906
T11C0.2520
%
G90
G05
T1
X1.62Y-5.47
X1.7433Y-4.8933
X1.7453Y-4.1547
X2.37Y-5.68
X2.55Y-4.35
X3.06Y-5.69
X3.27Y-5.55
X3.36Y-3.96
X3.41Y-4.24
X3.75Y-5.04
X3.77Y-5.59
X3.8231Y-3.7669
X3.85Y-4.14
X3.89Y-4.99
X3.91Y-4.89
X4.07Y-4.89
X4.07Y-5.14
X4.07Y-5.38
X4.17Y-5.88
X4.19Y-4.79
X4.27Y-4.16
T2
X4.3189Y-3.3709
X4.3742Y-3.2372
X4.3742Y-3.5045
X4.5079Y-3.1819
X4.5079Y-3.5598
X4.6415Y-3.2372
X4.6415Y-3.5045
X4.6969Y-3.3709
X1.324Y-3.3709
X1.3794Y-3.2372
X1.3794Y-3.5045
X1.513Y-3.1819
X1.513Y-3.5598
X1.6466Y-3.2372
X1.6466Y-3.5045
X1.702Y-3.3709
T3
X2.0613Y-3.54
X2.14Y-3.54
T4
X4.07Y-5.29
X3.86Y-5.9
X3.6Y-5.03
X3.6Y-5.1284
X3.6Y-4.76
X3.6Y-4.8584
X3.89Y-4.79
X3.89Y-5.29
X4.36Y-5.9
X3.86Y-5.73
X4.36Y-5.73
X4.07Y-4.79
T5
X4.2906Y-4.8772
X4.2906Y-4.9756
X4.2906Y-5.0543
X4.2906Y-5.1528
T6
X3.0946Y-4.84
X3.0946Y-4.94
X3.0946Y-5.04
X1.6433Y-5.8764
X1.7433Y-5.8764
X1.8433Y-5.8764
X1.9433Y-5.8764
X2.0433Y-5.8764
X2.1433Y-5.8764
X2.2433Y-5.8764
X2.3433Y-5.8764
X2.4433Y-5.8764
X2.5433Y-5.8764
X2.6433Y-5.8764
X3.0677Y-5.8754
X3.1677Y-5.8754
X3.2677Y-5.8754
X3.3677Y-5.8754
T7
X4.0384Y-5.5228
X4.44Y-5.57
T8
X3.8231Y-3.44
X4.02Y-3.44
T9
X3.63Y-5.38
X3.63Y-5.88
T10
X4.3972Y-4.7563
X4.3972Y-5.2736
T11
X4.5079Y-3.3642
X1.513Y-3.3709
T0
M30
