%TF.GenerationSoftware,KiCad,Pcbnew,5.1.6-c6e7f7d~87~ubuntu18.04.1*%
%TF.CreationDate,2021-10-05T10:28:48-04:00*%
%TF.ProjectId,boosta,626f6f73-7461-42e6-9b69-6361645f7063,rev?*%
%TF.SameCoordinates,Original*%
%TF.FileFunction,Legend,Top*%
%TF.FilePolarity,Positive*%
%FSLAX46Y46*%
G04 Gerber Fmt 4.6, Leading zero omitted, Abs format (unit mm)*
G04 Created by KiCad (PCBNEW 5.1.6-c6e7f7d~87~ubuntu18.04.1) date 2021-10-05 10:28:48*
%MOMM*%
%LPD*%
G01*
G04 APERTURE LIST*
%ADD10C,0.150000*%
%ADD11C,0.750000*%
%ADD12C,0.120000*%
G04 APERTURE END LIST*
D10*
X113975047Y-135596380D02*
X113498857Y-135596380D01*
X113451238Y-136072571D01*
X113498857Y-136024952D01*
X113594095Y-135977333D01*
X113832190Y-135977333D01*
X113927428Y-136024952D01*
X113975047Y-136072571D01*
X114022666Y-136167809D01*
X114022666Y-136405904D01*
X113975047Y-136501142D01*
X113927428Y-136548761D01*
X113832190Y-136596380D01*
X113594095Y-136596380D01*
X113498857Y-136548761D01*
X113451238Y-136501142D01*
X114308380Y-135596380D02*
X114641714Y-136596380D01*
X114975047Y-135596380D01*
X116070285Y-135596380D02*
X116070285Y-136405904D01*
X116117904Y-136501142D01*
X116165523Y-136548761D01*
X116260761Y-136596380D01*
X116451238Y-136596380D01*
X116546476Y-136548761D01*
X116594095Y-136501142D01*
X116641714Y-136405904D01*
X116641714Y-135596380D01*
X117070285Y-136548761D02*
X117213142Y-136596380D01*
X117451238Y-136596380D01*
X117546476Y-136548761D01*
X117594095Y-136501142D01*
X117641714Y-136405904D01*
X117641714Y-136310666D01*
X117594095Y-136215428D01*
X117546476Y-136167809D01*
X117451238Y-136120190D01*
X117260761Y-136072571D01*
X117165523Y-136024952D01*
X117117904Y-135977333D01*
X117070285Y-135882095D01*
X117070285Y-135786857D01*
X117117904Y-135691619D01*
X117165523Y-135644000D01*
X117260761Y-135596380D01*
X117498857Y-135596380D01*
X117641714Y-135644000D01*
X118403619Y-136072571D02*
X118546476Y-136120190D01*
X118594095Y-136167809D01*
X118641714Y-136263047D01*
X118641714Y-136405904D01*
X118594095Y-136501142D01*
X118546476Y-136548761D01*
X118451238Y-136596380D01*
X118070285Y-136596380D01*
X118070285Y-135596380D01*
X118403619Y-135596380D01*
X118498857Y-135644000D01*
X118546476Y-135691619D01*
X118594095Y-135786857D01*
X118594095Y-135882095D01*
X118546476Y-135977333D01*
X118498857Y-136024952D01*
X118403619Y-136072571D01*
X118070285Y-136072571D01*
X120022666Y-135596380D02*
X120213142Y-135596380D01*
X120308380Y-135644000D01*
X120403619Y-135739238D01*
X120451238Y-135929714D01*
X120451238Y-136263047D01*
X120403619Y-136453523D01*
X120308380Y-136548761D01*
X120213142Y-136596380D01*
X120022666Y-136596380D01*
X119927428Y-136548761D01*
X119832190Y-136453523D01*
X119784571Y-136263047D01*
X119784571Y-135929714D01*
X119832190Y-135739238D01*
X119927428Y-135644000D01*
X120022666Y-135596380D01*
X120879809Y-135596380D02*
X120879809Y-136405904D01*
X120927428Y-136501142D01*
X120975047Y-136548761D01*
X121070285Y-136596380D01*
X121260761Y-136596380D01*
X121356000Y-136548761D01*
X121403619Y-136501142D01*
X121451238Y-136405904D01*
X121451238Y-135596380D01*
X121784571Y-135596380D02*
X122356000Y-135596380D01*
X122070285Y-136596380D02*
X122070285Y-135596380D01*
X32043619Y-139716095D02*
X31234095Y-139716095D01*
X31138857Y-139763714D01*
X31091238Y-139811333D01*
X31043619Y-139906571D01*
X31043619Y-140097047D01*
X31091238Y-140192285D01*
X31138857Y-140239904D01*
X31234095Y-140287523D01*
X32043619Y-140287523D01*
X31091238Y-140716095D02*
X31043619Y-140858952D01*
X31043619Y-141097047D01*
X31091238Y-141192285D01*
X31138857Y-141239904D01*
X31234095Y-141287523D01*
X31329333Y-141287523D01*
X31424571Y-141239904D01*
X31472190Y-141192285D01*
X31519809Y-141097047D01*
X31567428Y-140906571D01*
X31615047Y-140811333D01*
X31662666Y-140763714D01*
X31757904Y-140716095D01*
X31853142Y-140716095D01*
X31948380Y-140763714D01*
X31996000Y-140811333D01*
X32043619Y-140906571D01*
X32043619Y-141144666D01*
X31996000Y-141287523D01*
X31567428Y-142049428D02*
X31519809Y-142192285D01*
X31472190Y-142239904D01*
X31376952Y-142287523D01*
X31234095Y-142287523D01*
X31138857Y-142239904D01*
X31091238Y-142192285D01*
X31043619Y-142097047D01*
X31043619Y-141716095D01*
X32043619Y-141716095D01*
X32043619Y-142049428D01*
X31996000Y-142144666D01*
X31948380Y-142192285D01*
X31853142Y-142239904D01*
X31757904Y-142239904D01*
X31662666Y-142192285D01*
X31615047Y-142144666D01*
X31567428Y-142049428D01*
X31567428Y-141716095D01*
X31138857Y-143287523D02*
X31091238Y-143239904D01*
X31043619Y-143097047D01*
X31043619Y-143001809D01*
X31091238Y-142858952D01*
X31186476Y-142763714D01*
X31281714Y-142716095D01*
X31472190Y-142668476D01*
X31615047Y-142668476D01*
X31805523Y-142716095D01*
X31900761Y-142763714D01*
X31996000Y-142858952D01*
X32043619Y-143001809D01*
X32043619Y-143097047D01*
X31996000Y-143239904D01*
X31948380Y-143287523D01*
X32043619Y-127651238D02*
X32043619Y-127175047D01*
X31567428Y-127127428D01*
X31615047Y-127175047D01*
X31662666Y-127270285D01*
X31662666Y-127508380D01*
X31615047Y-127603619D01*
X31567428Y-127651238D01*
X31472190Y-127698857D01*
X31234095Y-127698857D01*
X31138857Y-127651238D01*
X31091238Y-127603619D01*
X31043619Y-127508380D01*
X31043619Y-127270285D01*
X31091238Y-127175047D01*
X31138857Y-127127428D01*
X31424571Y-128127428D02*
X31424571Y-128889333D01*
X31043619Y-129889333D02*
X31043619Y-129317904D01*
X31043619Y-129603619D02*
X32043619Y-129603619D01*
X31900761Y-129508380D01*
X31805523Y-129413142D01*
X31757904Y-129317904D01*
X32043619Y-130508380D02*
X32043619Y-130603619D01*
X31996000Y-130698857D01*
X31948380Y-130746476D01*
X31853142Y-130794095D01*
X31662666Y-130841714D01*
X31424571Y-130841714D01*
X31234095Y-130794095D01*
X31138857Y-130746476D01*
X31091238Y-130698857D01*
X31043619Y-130603619D01*
X31043619Y-130508380D01*
X31091238Y-130413142D01*
X31138857Y-130365523D01*
X31234095Y-130317904D01*
X31424571Y-130270285D01*
X31662666Y-130270285D01*
X31853142Y-130317904D01*
X31948380Y-130365523D01*
X31996000Y-130413142D01*
X32043619Y-130508380D01*
X32043619Y-131127428D02*
X31043619Y-131460761D01*
X32043619Y-131794095D01*
X31043619Y-132889333D02*
X32043619Y-132889333D01*
X31043619Y-133365523D02*
X32043619Y-133365523D01*
X31043619Y-133936952D01*
X32043619Y-133936952D01*
X78145142Y-135088380D02*
X78716571Y-135088380D01*
X78430857Y-136088380D02*
X78430857Y-135088380D01*
X79049904Y-136088380D02*
X79049904Y-135088380D01*
X79430857Y-135088380D01*
X79526095Y-135136000D01*
X79573714Y-135183619D01*
X79621333Y-135278857D01*
X79621333Y-135421714D01*
X79573714Y-135516952D01*
X79526095Y-135564571D01*
X79430857Y-135612190D01*
X79049904Y-135612190D01*
X80002285Y-136040761D02*
X80145142Y-136088380D01*
X80383238Y-136088380D01*
X80478476Y-136040761D01*
X80526095Y-135993142D01*
X80573714Y-135897904D01*
X80573714Y-135802666D01*
X80526095Y-135707428D01*
X80478476Y-135659809D01*
X80383238Y-135612190D01*
X80192761Y-135564571D01*
X80097523Y-135516952D01*
X80049904Y-135469333D01*
X80002285Y-135374095D01*
X80002285Y-135278857D01*
X80049904Y-135183619D01*
X80097523Y-135136000D01*
X80192761Y-135088380D01*
X80430857Y-135088380D01*
X80573714Y-135136000D01*
X81430857Y-135088380D02*
X81240380Y-135088380D01*
X81145142Y-135136000D01*
X81097523Y-135183619D01*
X81002285Y-135326476D01*
X80954666Y-135516952D01*
X80954666Y-135897904D01*
X81002285Y-135993142D01*
X81049904Y-136040761D01*
X81145142Y-136088380D01*
X81335619Y-136088380D01*
X81430857Y-136040761D01*
X81478476Y-135993142D01*
X81526095Y-135897904D01*
X81526095Y-135659809D01*
X81478476Y-135564571D01*
X81430857Y-135516952D01*
X81335619Y-135469333D01*
X81145142Y-135469333D01*
X81049904Y-135516952D01*
X81002285Y-135564571D01*
X80954666Y-135659809D01*
X82478476Y-136088380D02*
X81907047Y-136088380D01*
X82192761Y-136088380D02*
X82192761Y-135088380D01*
X82097523Y-135231238D01*
X82002285Y-135326476D01*
X81907047Y-135374095D01*
X83097523Y-135088380D02*
X83192761Y-135088380D01*
X83288000Y-135136000D01*
X83335619Y-135183619D01*
X83383238Y-135278857D01*
X83430857Y-135469333D01*
X83430857Y-135707428D01*
X83383238Y-135897904D01*
X83335619Y-135993142D01*
X83288000Y-136040761D01*
X83192761Y-136088380D01*
X83097523Y-136088380D01*
X83002285Y-136040761D01*
X82954666Y-135993142D01*
X82907047Y-135897904D01*
X82859428Y-135707428D01*
X82859428Y-135469333D01*
X82907047Y-135278857D01*
X82954666Y-135183619D01*
X83002285Y-135136000D01*
X83097523Y-135088380D01*
X83811809Y-135183619D02*
X83859428Y-135136000D01*
X83954666Y-135088380D01*
X84192761Y-135088380D01*
X84288000Y-135136000D01*
X84335619Y-135183619D01*
X84383238Y-135278857D01*
X84383238Y-135374095D01*
X84335619Y-135516952D01*
X83764190Y-136088380D01*
X84383238Y-136088380D01*
X84716571Y-135088380D02*
X85335619Y-135088380D01*
X85002285Y-135469333D01*
X85145142Y-135469333D01*
X85240380Y-135516952D01*
X85288000Y-135564571D01*
X85335619Y-135659809D01*
X85335619Y-135897904D01*
X85288000Y-135993142D01*
X85240380Y-136040761D01*
X85145142Y-136088380D01*
X84859428Y-136088380D01*
X84764190Y-136040761D01*
X84716571Y-135993142D01*
X43102095Y-122594666D02*
X43578285Y-122594666D01*
X43006857Y-122880380D02*
X43340190Y-121880380D01*
X43673523Y-122880380D01*
X44435428Y-122880380D02*
X44435428Y-121880380D01*
X44435428Y-122832761D02*
X44340190Y-122880380D01*
X44149714Y-122880380D01*
X44054476Y-122832761D01*
X44006857Y-122785142D01*
X43959238Y-122689904D01*
X43959238Y-122404190D01*
X44006857Y-122308952D01*
X44054476Y-122261333D01*
X44149714Y-122213714D01*
X44340190Y-122213714D01*
X44435428Y-122261333D01*
X45340190Y-122880380D02*
X45340190Y-122356571D01*
X45292571Y-122261333D01*
X45197333Y-122213714D01*
X45006857Y-122213714D01*
X44911619Y-122261333D01*
X45340190Y-122832761D02*
X45244952Y-122880380D01*
X45006857Y-122880380D01*
X44911619Y-122832761D01*
X44864000Y-122737523D01*
X44864000Y-122642285D01*
X44911619Y-122547047D01*
X45006857Y-122499428D01*
X45244952Y-122499428D01*
X45340190Y-122451809D01*
X45673523Y-122213714D02*
X46054476Y-122213714D01*
X45816380Y-122880380D02*
X45816380Y-122023238D01*
X45864000Y-121928000D01*
X45959238Y-121880380D01*
X46054476Y-121880380D01*
X46387809Y-122880380D02*
X46387809Y-122213714D01*
X46387809Y-122404190D02*
X46435428Y-122308952D01*
X46483047Y-122261333D01*
X46578285Y-122213714D01*
X46673523Y-122213714D01*
X47435428Y-122213714D02*
X47435428Y-122880380D01*
X47006857Y-122213714D02*
X47006857Y-122737523D01*
X47054476Y-122832761D01*
X47149714Y-122880380D01*
X47292571Y-122880380D01*
X47387809Y-122832761D01*
X47435428Y-122785142D01*
X47911619Y-122880380D02*
X47911619Y-122213714D01*
X47911619Y-121880380D02*
X47864000Y-121928000D01*
X47911619Y-121975619D01*
X47959238Y-121928000D01*
X47911619Y-121880380D01*
X47911619Y-121975619D01*
X48244952Y-122213714D02*
X48625904Y-122213714D01*
X48387809Y-121880380D02*
X48387809Y-122737523D01*
X48435428Y-122832761D01*
X48530666Y-122880380D01*
X48625904Y-122880380D01*
X49721142Y-121880380D02*
X49721142Y-122689904D01*
X49768761Y-122785142D01*
X49816380Y-122832761D01*
X49911619Y-122880380D01*
X50102095Y-122880380D01*
X50197333Y-122832761D01*
X50244952Y-122785142D01*
X50292571Y-122689904D01*
X50292571Y-121880380D01*
X50768761Y-122213714D02*
X50768761Y-122880380D01*
X50768761Y-122308952D02*
X50816380Y-122261333D01*
X50911619Y-122213714D01*
X51054476Y-122213714D01*
X51149714Y-122261333D01*
X51197333Y-122356571D01*
X51197333Y-122880380D01*
X51673523Y-122880380D02*
X51673523Y-122213714D01*
X51673523Y-121880380D02*
X51625904Y-121928000D01*
X51673523Y-121975619D01*
X51721142Y-121928000D01*
X51673523Y-121880380D01*
X51673523Y-121975619D01*
X52054476Y-122213714D02*
X52292571Y-122880380D01*
X52530666Y-122213714D01*
X53292571Y-122832761D02*
X53197333Y-122880380D01*
X53006857Y-122880380D01*
X52911619Y-122832761D01*
X52863999Y-122737523D01*
X52863999Y-122356571D01*
X52911619Y-122261333D01*
X53006857Y-122213714D01*
X53197333Y-122213714D01*
X53292571Y-122261333D01*
X53340190Y-122356571D01*
X53340190Y-122451809D01*
X52863999Y-122547047D01*
X53768761Y-122880380D02*
X53768761Y-122213714D01*
X53768761Y-122404190D02*
X53816380Y-122308952D01*
X53863999Y-122261333D01*
X53959238Y-122213714D01*
X54054476Y-122213714D01*
X54340190Y-122832761D02*
X54435428Y-122880380D01*
X54625904Y-122880380D01*
X54721142Y-122832761D01*
X54768761Y-122737523D01*
X54768761Y-122689904D01*
X54721142Y-122594666D01*
X54625904Y-122547047D01*
X54483047Y-122547047D01*
X54387809Y-122499428D01*
X54340190Y-122404190D01*
X54340190Y-122356571D01*
X54387809Y-122261333D01*
X54483047Y-122213714D01*
X54625904Y-122213714D01*
X54721142Y-122261333D01*
X55625904Y-122880380D02*
X55625904Y-122356571D01*
X55578285Y-122261333D01*
X55483047Y-122213714D01*
X55292571Y-122213714D01*
X55197333Y-122261333D01*
X55625904Y-122832761D02*
X55530666Y-122880380D01*
X55292571Y-122880380D01*
X55197333Y-122832761D01*
X55149714Y-122737523D01*
X55149714Y-122642285D01*
X55197333Y-122547047D01*
X55292571Y-122499428D01*
X55530666Y-122499428D01*
X55625904Y-122451809D01*
X56244952Y-122880380D02*
X56149714Y-122832761D01*
X56102095Y-122737523D01*
X56102095Y-121880380D01*
X57863999Y-122880380D02*
X57387809Y-122880380D01*
X57387809Y-121880380D01*
X58197333Y-122880380D02*
X58197333Y-122213714D01*
X58197333Y-121880380D02*
X58149714Y-121928000D01*
X58197333Y-121975619D01*
X58244952Y-121928000D01*
X58197333Y-121880380D01*
X58197333Y-121975619D01*
X58673523Y-122213714D02*
X58673523Y-123213714D01*
X58673523Y-122261333D02*
X58768761Y-122213714D01*
X58959238Y-122213714D01*
X59054476Y-122261333D01*
X59102095Y-122308952D01*
X59149714Y-122404190D01*
X59149714Y-122689904D01*
X59102095Y-122785142D01*
X59054476Y-122832761D01*
X58959238Y-122880380D01*
X58768761Y-122880380D01*
X58673523Y-122832761D01*
X59721142Y-122880380D02*
X59625904Y-122832761D01*
X59578285Y-122785142D01*
X59530666Y-122689904D01*
X59530666Y-122404190D01*
X59578285Y-122308952D01*
X59625904Y-122261333D01*
X59721142Y-122213714D01*
X59863999Y-122213714D01*
X59959238Y-122261333D01*
X60006857Y-122308952D01*
X60054476Y-122404190D01*
X60054476Y-122689904D01*
X60006857Y-122785142D01*
X59959238Y-122832761D01*
X59863999Y-122880380D01*
X59721142Y-122880380D01*
X61816380Y-122785142D02*
X61768761Y-122832761D01*
X61625904Y-122880380D01*
X61530666Y-122880380D01*
X61387809Y-122832761D01*
X61292571Y-122737523D01*
X61244952Y-122642285D01*
X61197333Y-122451809D01*
X61197333Y-122308952D01*
X61244952Y-122118476D01*
X61292571Y-122023238D01*
X61387809Y-121928000D01*
X61530666Y-121880380D01*
X61625904Y-121880380D01*
X61768761Y-121928000D01*
X61816380Y-121975619D01*
X62244952Y-122880380D02*
X62244952Y-121880380D01*
X62673523Y-122880380D02*
X62673523Y-122356571D01*
X62625904Y-122261333D01*
X62530666Y-122213714D01*
X62387809Y-122213714D01*
X62292571Y-122261333D01*
X62244952Y-122308952D01*
X63578285Y-122880380D02*
X63578285Y-122356571D01*
X63530666Y-122261333D01*
X63435428Y-122213714D01*
X63244952Y-122213714D01*
X63149714Y-122261333D01*
X63578285Y-122832761D02*
X63483047Y-122880380D01*
X63244952Y-122880380D01*
X63149714Y-122832761D01*
X63102095Y-122737523D01*
X63102095Y-122642285D01*
X63149714Y-122547047D01*
X63244952Y-122499428D01*
X63483047Y-122499428D01*
X63578285Y-122451809D01*
X64054476Y-122880380D02*
X64054476Y-122213714D01*
X64054476Y-122404190D02*
X64102095Y-122308952D01*
X64149714Y-122261333D01*
X64244952Y-122213714D01*
X64340190Y-122213714D01*
X65102095Y-122213714D02*
X65102095Y-123023238D01*
X65054476Y-123118476D01*
X65006857Y-123166095D01*
X64911619Y-123213714D01*
X64768761Y-123213714D01*
X64673523Y-123166095D01*
X65102095Y-122832761D02*
X65006857Y-122880380D01*
X64816380Y-122880380D01*
X64721142Y-122832761D01*
X64673523Y-122785142D01*
X64625904Y-122689904D01*
X64625904Y-122404190D01*
X64673523Y-122308952D01*
X64721142Y-122261333D01*
X64816380Y-122213714D01*
X65006857Y-122213714D01*
X65102095Y-122261333D01*
X65959238Y-122832761D02*
X65863999Y-122880380D01*
X65673523Y-122880380D01*
X65578285Y-122832761D01*
X65530666Y-122737523D01*
X65530666Y-122356571D01*
X65578285Y-122261333D01*
X65673523Y-122213714D01*
X65863999Y-122213714D01*
X65959238Y-122261333D01*
X66006857Y-122356571D01*
X66006857Y-122451809D01*
X65530666Y-122547047D01*
X66435428Y-122880380D02*
X66435428Y-122213714D01*
X66435428Y-122404190D02*
X66483047Y-122308952D01*
X66530666Y-122261333D01*
X66625904Y-122213714D01*
X66721142Y-122213714D01*
D11*
X107061142Y-79716285D02*
X109346857Y-79716285D01*
X108204000Y-80859142D02*
X108204000Y-78573428D01*
X43815142Y-79716285D02*
X46100857Y-79716285D01*
D10*
X117831099Y-92976450D02*
X118773908Y-93447854D01*
X118302503Y-92505045D01*
X118874923Y-92606061D02*
X119110625Y-92370358D01*
X119582030Y-92639732D02*
X119245312Y-92976450D01*
X118538206Y-92269343D01*
X118874923Y-91932625D01*
X119110625Y-91696923D02*
X120289137Y-91932625D01*
X119582030Y-91225519D02*
X119817732Y-92404030D01*
X119750389Y-91057160D02*
X120154450Y-90653099D01*
X120659526Y-91562236D02*
X119952419Y-90855129D01*
X33596805Y-91817698D02*
X33563133Y-91716683D01*
X33462118Y-91615668D01*
X33327431Y-91548324D01*
X33192744Y-91548324D01*
X33091729Y-91581996D01*
X32923370Y-91683011D01*
X32822355Y-91784026D01*
X32721339Y-91952385D01*
X32687668Y-92053400D01*
X32687668Y-92188087D01*
X32755011Y-92322774D01*
X32822355Y-92390118D01*
X32957042Y-92457461D01*
X33024385Y-92457461D01*
X33260087Y-92221759D01*
X33125400Y-92087072D01*
X33260087Y-92827851D02*
X33967194Y-92120744D01*
X33664148Y-93231912D01*
X34371255Y-92524805D01*
X34000866Y-93568629D02*
X34707973Y-92861522D01*
X34876331Y-93029881D01*
X34943675Y-93164568D01*
X34943675Y-93299255D01*
X34910003Y-93400270D01*
X34808988Y-93568629D01*
X34707973Y-93669644D01*
X34539614Y-93770660D01*
X34438599Y-93804331D01*
X34303912Y-93804331D01*
X34169225Y-93736988D01*
X34000866Y-93568629D01*
X101814380Y-81652857D02*
X102814380Y-81319523D01*
X101814380Y-80986190D01*
X102290571Y-80652857D02*
X102290571Y-80319523D01*
X102814380Y-80176666D02*
X102814380Y-80652857D01*
X101814380Y-80652857D01*
X101814380Y-80176666D01*
X101814380Y-79843333D02*
X102814380Y-79176666D01*
X101814380Y-79176666D02*
X102814380Y-79843333D01*
X101814380Y-78938571D02*
X101814380Y-78367142D01*
X102814380Y-78652857D02*
X101814380Y-78652857D01*
X96528000Y-80517904D02*
X96480380Y-80613142D01*
X96480380Y-80756000D01*
X96528000Y-80898857D01*
X96623238Y-80994095D01*
X96718476Y-81041714D01*
X96908952Y-81089333D01*
X97051809Y-81089333D01*
X97242285Y-81041714D01*
X97337523Y-80994095D01*
X97432761Y-80898857D01*
X97480380Y-80756000D01*
X97480380Y-80660761D01*
X97432761Y-80517904D01*
X97385142Y-80470285D01*
X97051809Y-80470285D01*
X97051809Y-80660761D01*
X97480380Y-80041714D02*
X96480380Y-80041714D01*
X97480380Y-79470285D01*
X96480380Y-79470285D01*
X97480380Y-78994095D02*
X96480380Y-78994095D01*
X96480380Y-78756000D01*
X96528000Y-78613142D01*
X96623238Y-78517904D01*
X96718476Y-78470285D01*
X96908952Y-78422666D01*
X97051809Y-78422666D01*
X97242285Y-78470285D01*
X97337523Y-78517904D01*
X97432761Y-78613142D01*
X97480380Y-78756000D01*
X97480380Y-78994095D01*
X51570000Y-80771904D02*
X51522380Y-80867142D01*
X51522380Y-81010000D01*
X51570000Y-81152857D01*
X51665238Y-81248095D01*
X51760476Y-81295714D01*
X51950952Y-81343333D01*
X52093809Y-81343333D01*
X52284285Y-81295714D01*
X52379523Y-81248095D01*
X52474761Y-81152857D01*
X52522380Y-81010000D01*
X52522380Y-80914761D01*
X52474761Y-80771904D01*
X52427142Y-80724285D01*
X52093809Y-80724285D01*
X52093809Y-80914761D01*
X52522380Y-80295714D02*
X51522380Y-80295714D01*
X52522380Y-79724285D01*
X51522380Y-79724285D01*
X52522380Y-79248095D02*
X51522380Y-79248095D01*
X51522380Y-79010000D01*
X51570000Y-78867142D01*
X51665238Y-78771904D01*
X51760476Y-78724285D01*
X51950952Y-78676666D01*
X52093809Y-78676666D01*
X52284285Y-78724285D01*
X52379523Y-78771904D01*
X52474761Y-78867142D01*
X52522380Y-79010000D01*
X52522380Y-79248095D01*
X55570380Y-80962380D02*
X55570380Y-81438571D01*
X54570380Y-81438571D01*
X55570380Y-80629047D02*
X54570380Y-80629047D01*
X55570380Y-80152857D02*
X54570380Y-80152857D01*
X54570380Y-79771904D01*
X54618000Y-79676666D01*
X54665619Y-79629047D01*
X54760857Y-79581428D01*
X54903714Y-79581428D01*
X54998952Y-79629047D01*
X55046571Y-79676666D01*
X55094190Y-79771904D01*
X55094190Y-80152857D01*
X54570380Y-78962380D02*
X54570380Y-78771904D01*
X54618000Y-78676666D01*
X54713238Y-78581428D01*
X54903714Y-78533809D01*
X55237047Y-78533809D01*
X55427523Y-78581428D01*
X55522761Y-78676666D01*
X55570380Y-78771904D01*
X55570380Y-78962380D01*
X55522761Y-79057619D01*
X55427523Y-79152857D01*
X55237047Y-79200476D01*
X54903714Y-79200476D01*
X54713238Y-79152857D01*
X54618000Y-79057619D01*
X54570380Y-78962380D01*
X81089523Y-122642380D02*
X80613333Y-122642380D01*
X80565714Y-123118571D01*
X80613333Y-123070952D01*
X80708571Y-123023333D01*
X80946666Y-123023333D01*
X81041904Y-123070952D01*
X81089523Y-123118571D01*
X81137142Y-123213809D01*
X81137142Y-123451904D01*
X81089523Y-123547142D01*
X81041904Y-123594761D01*
X80946666Y-123642380D01*
X80708571Y-123642380D01*
X80613333Y-123594761D01*
X80565714Y-123547142D01*
X81422857Y-122642380D02*
X81756190Y-123642380D01*
X82089523Y-122642380D01*
X81026095Y-125230000D02*
X80930857Y-125182380D01*
X80788000Y-125182380D01*
X80645142Y-125230000D01*
X80549904Y-125325238D01*
X80502285Y-125420476D01*
X80454666Y-125610952D01*
X80454666Y-125753809D01*
X80502285Y-125944285D01*
X80549904Y-126039523D01*
X80645142Y-126134761D01*
X80788000Y-126182380D01*
X80883238Y-126182380D01*
X81026095Y-126134761D01*
X81073714Y-126087142D01*
X81073714Y-125753809D01*
X80883238Y-125753809D01*
X81502285Y-126182380D02*
X81502285Y-125182380D01*
X82073714Y-126182380D01*
X82073714Y-125182380D01*
X82549904Y-126182380D02*
X82549904Y-125182380D01*
X82788000Y-125182380D01*
X82930857Y-125230000D01*
X83026095Y-125325238D01*
X83073714Y-125420476D01*
X83121333Y-125610952D01*
X83121333Y-125753809D01*
X83073714Y-125944285D01*
X83026095Y-126039523D01*
X82930857Y-126134761D01*
X82788000Y-126182380D01*
X82549904Y-126182380D01*
X80399142Y-127722380D02*
X80732476Y-128722380D01*
X81065809Y-127722380D01*
X81399142Y-128198571D02*
X81732476Y-128198571D01*
X81875333Y-128722380D02*
X81399142Y-128722380D01*
X81399142Y-127722380D01*
X81875333Y-127722380D01*
X82208666Y-127722380D02*
X82875333Y-128722380D01*
X82875333Y-127722380D02*
X82208666Y-128722380D01*
X83113428Y-127722380D02*
X83684857Y-127722380D01*
X83399142Y-128722380D02*
X83399142Y-127722380D01*
X80018000Y-154685904D02*
X79970380Y-154781142D01*
X79970380Y-154924000D01*
X80018000Y-155066857D01*
X80113238Y-155162095D01*
X80208476Y-155209714D01*
X80398952Y-155257333D01*
X80541809Y-155257333D01*
X80732285Y-155209714D01*
X80827523Y-155162095D01*
X80922761Y-155066857D01*
X80970380Y-154924000D01*
X80970380Y-154828761D01*
X80922761Y-154685904D01*
X80875142Y-154638285D01*
X80541809Y-154638285D01*
X80541809Y-154828761D01*
X80970380Y-154209714D02*
X79970380Y-154209714D01*
X80970380Y-153638285D01*
X79970380Y-153638285D01*
X80970380Y-153162095D02*
X79970380Y-153162095D01*
X79970380Y-152924000D01*
X80018000Y-152781142D01*
X80113238Y-152685904D01*
X80208476Y-152638285D01*
X80398952Y-152590666D01*
X80541809Y-152590666D01*
X80732285Y-152638285D01*
X80827523Y-152685904D01*
X80922761Y-152781142D01*
X80970380Y-152924000D01*
X80970380Y-153162095D01*
X66556000Y-154431904D02*
X66508380Y-154527142D01*
X66508380Y-154670000D01*
X66556000Y-154812857D01*
X66651238Y-154908095D01*
X66746476Y-154955714D01*
X66936952Y-155003333D01*
X67079809Y-155003333D01*
X67270285Y-154955714D01*
X67365523Y-154908095D01*
X67460761Y-154812857D01*
X67508380Y-154670000D01*
X67508380Y-154574761D01*
X67460761Y-154431904D01*
X67413142Y-154384285D01*
X67079809Y-154384285D01*
X67079809Y-154574761D01*
X67508380Y-153955714D02*
X66508380Y-153955714D01*
X67508380Y-153384285D01*
X66508380Y-153384285D01*
X67508380Y-152908095D02*
X66508380Y-152908095D01*
X66508380Y-152670000D01*
X66556000Y-152527142D01*
X66651238Y-152431904D01*
X66746476Y-152384285D01*
X66936952Y-152336666D01*
X67079809Y-152336666D01*
X67270285Y-152384285D01*
X67365523Y-152431904D01*
X67460761Y-152527142D01*
X67508380Y-152670000D01*
X67508380Y-152908095D01*
X41108380Y-155757333D02*
X42108380Y-155424000D01*
X41108380Y-155090666D01*
X41108380Y-154757333D02*
X41917904Y-154757333D01*
X42013142Y-154709714D01*
X42060761Y-154662095D01*
X42108380Y-154566857D01*
X42108380Y-154376380D01*
X42060761Y-154281142D01*
X42013142Y-154233523D01*
X41917904Y-154185904D01*
X41108380Y-154185904D01*
X42060761Y-153757333D02*
X42108380Y-153614476D01*
X42108380Y-153376380D01*
X42060761Y-153281142D01*
X42013142Y-153233523D01*
X41917904Y-153185904D01*
X41822666Y-153185904D01*
X41727428Y-153233523D01*
X41679809Y-153281142D01*
X41632190Y-153376380D01*
X41584571Y-153566857D01*
X41536952Y-153662095D01*
X41489333Y-153709714D01*
X41394095Y-153757333D01*
X41298857Y-153757333D01*
X41203619Y-153709714D01*
X41156000Y-153662095D01*
X41108380Y-153566857D01*
X41108380Y-153328761D01*
X41156000Y-153185904D01*
X41584571Y-152424000D02*
X41632190Y-152281142D01*
X41679809Y-152233523D01*
X41775047Y-152185904D01*
X41917904Y-152185904D01*
X42013142Y-152233523D01*
X42060761Y-152281142D01*
X42108380Y-152376380D01*
X42108380Y-152757333D01*
X41108380Y-152757333D01*
X41108380Y-152424000D01*
X41156000Y-152328761D01*
X41203619Y-152281142D01*
X41298857Y-152233523D01*
X41394095Y-152233523D01*
X41489333Y-152281142D01*
X41536952Y-152328761D01*
X41584571Y-152424000D01*
X41584571Y-152757333D01*
D12*
X76690000Y-137614000D02*
X76690000Y-137764000D01*
X76210000Y-151624000D02*
X87210000Y-151624000D01*
X87210000Y-133624000D02*
X87210000Y-151624000D01*
X76210000Y-133624000D02*
X76210000Y-151624000D01*
X76210000Y-133624000D02*
X87210000Y-133624000D01*
X72830000Y-136390000D02*
X66250000Y-136390000D01*
X66250000Y-136390000D02*
X66250000Y-143250000D01*
X66250000Y-143250000D02*
X72830000Y-143250000D01*
X72830000Y-143250000D02*
X72830000Y-136350000D01*
X72720000Y-131910000D02*
X72720000Y-125010000D01*
X66140000Y-131910000D02*
X72720000Y-131910000D01*
X66140000Y-125050000D02*
X66140000Y-131910000D01*
X72720000Y-125050000D02*
X66140000Y-125050000D01*
X34000000Y-137360000D02*
X34380000Y-137360000D01*
X34000000Y-145130000D02*
X34000000Y-137360000D01*
X42380000Y-145130000D02*
X34000000Y-145130000D01*
X42380000Y-137360000D02*
X42380000Y-145130000D01*
X34360000Y-137360000D02*
X42380000Y-137360000D01*
X33160000Y-126560000D02*
X33810000Y-126560000D01*
X33220000Y-134230000D02*
X33220000Y-126530000D01*
X43750000Y-134260000D02*
X33160000Y-134260000D01*
X43750000Y-126560000D02*
X43750000Y-134260000D01*
X33770000Y-126560000D02*
X43750000Y-126560000D01*
X76454000Y-131418000D02*
X84304000Y-131418000D01*
X84304000Y-119348000D02*
X84304000Y-131418000D01*
X76454000Y-119348000D02*
X76454000Y-131418000D01*
X76454000Y-119348000D02*
X84304000Y-119348000D01*
X73490000Y-118720000D02*
X73490000Y-151740000D01*
X35390000Y-151740000D02*
X73490000Y-151740000D01*
X72300000Y-149200000D02*
G75*
G03*
X72300000Y-149200000I-1350000J0D01*
G01*
X39280000Y-149200000D02*
G75*
G03*
X39280000Y-149200000I-1350000J0D01*
G01*
X72300000Y-121260000D02*
G75*
G03*
X72300000Y-121260000I-1350000J0D01*
G01*
X39280000Y-121260000D02*
G75*
G03*
X39280000Y-121260000I-1350000J0D01*
G01*
X35390000Y-118720000D02*
X35390000Y-151740000D01*
X35390000Y-118720000D02*
X73490000Y-118720000D01*
D10*
X58914380Y-163401428D02*
X58914380Y-165401428D01*
X58914380Y-163496666D02*
X59104857Y-163401428D01*
X59485809Y-163401428D01*
X59676285Y-163496666D01*
X59771523Y-163591904D01*
X59866761Y-163782380D01*
X59866761Y-164353809D01*
X59771523Y-164544285D01*
X59676285Y-164639523D01*
X59485809Y-164734761D01*
X59104857Y-164734761D01*
X58914380Y-164639523D01*
X60533428Y-163401428D02*
X61009619Y-164734761D01*
X61485809Y-163401428D01*
X62533428Y-164734761D02*
X62342952Y-164639523D01*
X62247714Y-164544285D01*
X62152476Y-164353809D01*
X62152476Y-163782380D01*
X62247714Y-163591904D01*
X62342952Y-163496666D01*
X62533428Y-163401428D01*
X62819142Y-163401428D01*
X63009619Y-163496666D01*
X63104857Y-163591904D01*
X63200095Y-163782380D01*
X63200095Y-164353809D01*
X63104857Y-164544285D01*
X63009619Y-164639523D01*
X62819142Y-164734761D01*
X62533428Y-164734761D01*
X63962000Y-164639523D02*
X64152476Y-164734761D01*
X64533428Y-164734761D01*
X64723904Y-164639523D01*
X64819142Y-164449047D01*
X64819142Y-164353809D01*
X64723904Y-164163333D01*
X64533428Y-164068095D01*
X64247714Y-164068095D01*
X64057238Y-163972857D01*
X63962000Y-163782380D01*
X63962000Y-163687142D01*
X64057238Y-163496666D01*
X64247714Y-163401428D01*
X64533428Y-163401428D01*
X64723904Y-163496666D01*
X65676285Y-164544285D02*
X65771523Y-164639523D01*
X65676285Y-164734761D01*
X65581047Y-164639523D01*
X65676285Y-164544285D01*
X65676285Y-164734761D01*
X66914380Y-164734761D02*
X66723904Y-164639523D01*
X66628666Y-164544285D01*
X66533428Y-164353809D01*
X66533428Y-163782380D01*
X66628666Y-163591904D01*
X66723904Y-163496666D01*
X66914380Y-163401428D01*
X67200095Y-163401428D01*
X67390571Y-163496666D01*
X67485809Y-163591904D01*
X67581047Y-163782380D01*
X67581047Y-164353809D01*
X67485809Y-164544285D01*
X67390571Y-164639523D01*
X67200095Y-164734761D01*
X66914380Y-164734761D01*
X68438190Y-164734761D02*
X68438190Y-163401428D01*
X68438190Y-163782380D02*
X68533428Y-163591904D01*
X68628666Y-163496666D01*
X68819142Y-163401428D01*
X69009619Y-163401428D01*
X70533428Y-163401428D02*
X70533428Y-165020476D01*
X70438190Y-165210952D01*
X70342952Y-165306190D01*
X70152476Y-165401428D01*
X69866761Y-165401428D01*
X69676285Y-165306190D01*
X70533428Y-164639523D02*
X70342952Y-164734761D01*
X69962000Y-164734761D01*
X69771523Y-164639523D01*
X69676285Y-164544285D01*
X69581047Y-164353809D01*
X69581047Y-163782380D01*
X69676285Y-163591904D01*
X69771523Y-163496666D01*
X69962000Y-163401428D01*
X70342952Y-163401428D01*
X70533428Y-163496666D01*
X72914380Y-162639523D02*
X71200095Y-165210952D01*
X73581047Y-163401428D02*
X73581047Y-165401428D01*
X73581047Y-163496666D02*
X73771523Y-163401428D01*
X74152476Y-163401428D01*
X74342952Y-163496666D01*
X74438190Y-163591904D01*
X74533428Y-163782380D01*
X74533428Y-164353809D01*
X74438190Y-164544285D01*
X74342952Y-164639523D01*
X74152476Y-164734761D01*
X73771523Y-164734761D01*
X73581047Y-164639523D01*
X75676285Y-164734761D02*
X75485809Y-164639523D01*
X75390571Y-164544285D01*
X75295333Y-164353809D01*
X75295333Y-163782380D01*
X75390571Y-163591904D01*
X75485809Y-163496666D01*
X75676285Y-163401428D01*
X75962000Y-163401428D01*
X76152476Y-163496666D01*
X76247714Y-163591904D01*
X76342952Y-163782380D01*
X76342952Y-164353809D01*
X76247714Y-164544285D01*
X76152476Y-164639523D01*
X75962000Y-164734761D01*
X75676285Y-164734761D01*
X77009619Y-163401428D02*
X77390571Y-164734761D01*
X77771523Y-163782380D01*
X78152476Y-164734761D01*
X78533428Y-163401428D01*
X80057238Y-164639523D02*
X79866761Y-164734761D01*
X79485809Y-164734761D01*
X79295333Y-164639523D01*
X79200095Y-164449047D01*
X79200095Y-163687142D01*
X79295333Y-163496666D01*
X79485809Y-163401428D01*
X79866761Y-163401428D01*
X80057238Y-163496666D01*
X80152476Y-163687142D01*
X80152476Y-163877619D01*
X79200095Y-164068095D01*
X81009619Y-164734761D02*
X81009619Y-163401428D01*
X81009619Y-163782380D02*
X81104857Y-163591904D01*
X81200095Y-163496666D01*
X81390571Y-163401428D01*
X81581047Y-163401428D01*
X83676285Y-162639523D02*
X81962000Y-165210952D01*
X84342952Y-164734761D02*
X84342952Y-162734761D01*
X84342952Y-163496666D02*
X84533428Y-163401428D01*
X84914380Y-163401428D01*
X85104857Y-163496666D01*
X85200095Y-163591904D01*
X85295333Y-163782380D01*
X85295333Y-164353809D01*
X85200095Y-164544285D01*
X85104857Y-164639523D01*
X84914380Y-164734761D01*
X84533428Y-164734761D01*
X84342952Y-164639523D01*
X86438190Y-164734761D02*
X86247714Y-164639523D01*
X86152476Y-164544285D01*
X86057238Y-164353809D01*
X86057238Y-163782380D01*
X86152476Y-163591904D01*
X86247714Y-163496666D01*
X86438190Y-163401428D01*
X86723904Y-163401428D01*
X86914380Y-163496666D01*
X87009619Y-163591904D01*
X87104857Y-163782380D01*
X87104857Y-164353809D01*
X87009619Y-164544285D01*
X86914380Y-164639523D01*
X86723904Y-164734761D01*
X86438190Y-164734761D01*
X88247714Y-164734761D02*
X88057238Y-164639523D01*
X87962000Y-164544285D01*
X87866761Y-164353809D01*
X87866761Y-163782380D01*
X87962000Y-163591904D01*
X88057238Y-163496666D01*
X88247714Y-163401428D01*
X88533428Y-163401428D01*
X88723904Y-163496666D01*
X88819142Y-163591904D01*
X88914380Y-163782380D01*
X88914380Y-164353809D01*
X88819142Y-164544285D01*
X88723904Y-164639523D01*
X88533428Y-164734761D01*
X88247714Y-164734761D01*
X89676285Y-164639523D02*
X89866761Y-164734761D01*
X90247714Y-164734761D01*
X90438190Y-164639523D01*
X90533428Y-164449047D01*
X90533428Y-164353809D01*
X90438190Y-164163333D01*
X90247714Y-164068095D01*
X89962000Y-164068095D01*
X89771523Y-163972857D01*
X89676285Y-163782380D01*
X89676285Y-163687142D01*
X89771523Y-163496666D01*
X89962000Y-163401428D01*
X90247714Y-163401428D01*
X90438190Y-163496666D01*
X91104857Y-163401428D02*
X91866761Y-163401428D01*
X91390571Y-162734761D02*
X91390571Y-164449047D01*
X91485809Y-164639523D01*
X91676285Y-164734761D01*
X91866761Y-164734761D01*
X92057238Y-164925238D02*
X93581047Y-164925238D01*
X95104857Y-164734761D02*
X93962000Y-164734761D01*
X94533428Y-164734761D02*
X94533428Y-162734761D01*
X94342952Y-163020476D01*
X94152476Y-163210952D01*
X93962000Y-163306190D01*
D12*
%TO.C,J4*%
X102079195Y-85695747D02*
G75*
G02*
X102792000Y-85841000I28805J-1680253D01*
G01*
X103643426Y-86692958D02*
G75*
G02*
X103643000Y-88060000I-1535426J-683042D01*
G01*
X102791042Y-88911426D02*
G75*
G02*
X101424000Y-88911000I-683042J1535426D01*
G01*
X100572574Y-88059042D02*
G75*
G02*
X100573000Y-86692000I1535426J683042D01*
G01*
X101424682Y-85841244D02*
G75*
G02*
X102108000Y-85696000I683318J-1534756D01*
G01*
X98788000Y-87376000D02*
G75*
G03*
X98788000Y-87376000I-1680000J0D01*
G01*
X104668000Y-83276000D02*
X94548000Y-83276000D01*
X104668000Y-84776000D02*
X94548000Y-84776000D01*
X104668000Y-89677000D02*
X94548000Y-89677000D01*
X104668000Y-92637000D02*
X94548000Y-92637000D01*
X104668000Y-82716000D02*
X94548000Y-82716000D01*
X104668000Y-92637000D02*
X104668000Y-82716000D01*
X94548000Y-92637000D02*
X94548000Y-82716000D01*
X95833000Y-88445000D02*
X95880000Y-88399000D01*
X98142000Y-86137000D02*
X98177000Y-86102000D01*
X96038000Y-88651000D02*
X96073000Y-88615000D01*
X98335000Y-86353000D02*
X98382000Y-86307000D01*
X104908000Y-83216000D02*
X104908000Y-82476000D01*
X104908000Y-82476000D02*
X104408000Y-82476000D01*
%TO.C,BT1*%
X115170000Y-108970000D02*
X119530000Y-108970000D01*
X115170000Y-95090000D02*
X115170000Y-102090000D01*
X37890000Y-95090000D02*
X115170000Y-95090000D01*
X37890000Y-102090000D02*
X37890000Y-95090000D01*
X115170000Y-115970000D02*
X115170000Y-108970000D01*
X37890000Y-115970000D02*
X115170000Y-115970000D01*
X37890000Y-108970000D02*
X37890000Y-115950000D01*
X32780000Y-111530000D02*
X35280000Y-111530000D01*
X120280000Y-111530000D02*
X117780000Y-111530000D01*
X119030000Y-110280000D02*
X119030000Y-112780000D01*
%TO.C,R4*%
X99774000Y-148140000D02*
X99774000Y-151580000D01*
X99774000Y-151580000D02*
X109014000Y-151580000D01*
X109014000Y-151580000D02*
X109014000Y-148140000D01*
X109014000Y-148140000D02*
X99774000Y-148140000D01*
X99084000Y-149860000D02*
X99774000Y-149860000D01*
X109704000Y-149860000D02*
X109014000Y-149860000D01*
%TO.C,R3*%
X105098000Y-123396000D02*
X101658000Y-123396000D01*
X101658000Y-123396000D02*
X101658000Y-132636000D01*
X101658000Y-132636000D02*
X105098000Y-132636000D01*
X105098000Y-132636000D02*
X105098000Y-123396000D01*
X103378000Y-122706000D02*
X103378000Y-123396000D01*
X103378000Y-133326000D02*
X103378000Y-132636000D01*
%TO.C,R2*%
X99774000Y-143822000D02*
X99774000Y-147262000D01*
X99774000Y-147262000D02*
X109014000Y-147262000D01*
X109014000Y-147262000D02*
X109014000Y-143822000D01*
X109014000Y-143822000D02*
X99774000Y-143822000D01*
X99084000Y-145542000D02*
X99774000Y-145542000D01*
X109704000Y-145542000D02*
X109014000Y-145542000D01*
%TO.C,R1*%
X100526000Y-123396000D02*
X97086000Y-123396000D01*
X97086000Y-123396000D02*
X97086000Y-132636000D01*
X97086000Y-132636000D02*
X100526000Y-132636000D01*
X100526000Y-132636000D02*
X100526000Y-123396000D01*
X98806000Y-122706000D02*
X98806000Y-123396000D01*
X98806000Y-133326000D02*
X98806000Y-132636000D01*
%TO.C,D1*%
X94172000Y-138432000D02*
X90232000Y-138432000D01*
X90232000Y-138432000D02*
X90232000Y-147572000D01*
X90232000Y-147572000D02*
X94172000Y-147572000D01*
X94172000Y-147572000D02*
X94172000Y-138432000D01*
X92202000Y-138292000D02*
X92202000Y-138432000D01*
X92202000Y-147712000D02*
X92202000Y-147572000D01*
X94172000Y-139887000D02*
X90232000Y-139887000D01*
X94172000Y-140007000D02*
X90232000Y-140007000D01*
X94172000Y-139767000D02*
X90232000Y-139767000D01*
%TO.C,C2*%
X94060000Y-122154000D02*
G75*
G03*
X94060000Y-122154000I-2620000J0D01*
G01*
X94020000Y-122154000D02*
X88860000Y-122154000D01*
X94020000Y-122194000D02*
X88860000Y-122194000D01*
X94019000Y-122234000D02*
X88861000Y-122234000D01*
X94018000Y-122274000D02*
X88862000Y-122274000D01*
X94016000Y-122314000D02*
X88864000Y-122314000D01*
X94013000Y-122354000D02*
X88867000Y-122354000D01*
X94009000Y-122394000D02*
X92480000Y-122394000D01*
X90400000Y-122394000D02*
X88871000Y-122394000D01*
X94005000Y-122434000D02*
X92480000Y-122434000D01*
X90400000Y-122434000D02*
X88875000Y-122434000D01*
X94001000Y-122474000D02*
X92480000Y-122474000D01*
X90400000Y-122474000D02*
X88879000Y-122474000D01*
X93996000Y-122514000D02*
X92480000Y-122514000D01*
X90400000Y-122514000D02*
X88884000Y-122514000D01*
X93990000Y-122554000D02*
X92480000Y-122554000D01*
X90400000Y-122554000D02*
X88890000Y-122554000D01*
X93983000Y-122594000D02*
X92480000Y-122594000D01*
X90400000Y-122594000D02*
X88897000Y-122594000D01*
X93976000Y-122634000D02*
X92480000Y-122634000D01*
X90400000Y-122634000D02*
X88904000Y-122634000D01*
X93968000Y-122674000D02*
X92480000Y-122674000D01*
X90400000Y-122674000D02*
X88912000Y-122674000D01*
X93960000Y-122714000D02*
X92480000Y-122714000D01*
X90400000Y-122714000D02*
X88920000Y-122714000D01*
X93951000Y-122754000D02*
X92480000Y-122754000D01*
X90400000Y-122754000D02*
X88929000Y-122754000D01*
X93941000Y-122794000D02*
X92480000Y-122794000D01*
X90400000Y-122794000D02*
X88939000Y-122794000D01*
X93931000Y-122834000D02*
X92480000Y-122834000D01*
X90400000Y-122834000D02*
X88949000Y-122834000D01*
X93920000Y-122875000D02*
X92480000Y-122875000D01*
X90400000Y-122875000D02*
X88960000Y-122875000D01*
X93908000Y-122915000D02*
X92480000Y-122915000D01*
X90400000Y-122915000D02*
X88972000Y-122915000D01*
X93895000Y-122955000D02*
X92480000Y-122955000D01*
X90400000Y-122955000D02*
X88985000Y-122955000D01*
X93882000Y-122995000D02*
X92480000Y-122995000D01*
X90400000Y-122995000D02*
X88998000Y-122995000D01*
X93868000Y-123035000D02*
X92480000Y-123035000D01*
X90400000Y-123035000D02*
X89012000Y-123035000D01*
X93854000Y-123075000D02*
X92480000Y-123075000D01*
X90400000Y-123075000D02*
X89026000Y-123075000D01*
X93838000Y-123115000D02*
X92480000Y-123115000D01*
X90400000Y-123115000D02*
X89042000Y-123115000D01*
X93822000Y-123155000D02*
X92480000Y-123155000D01*
X90400000Y-123155000D02*
X89058000Y-123155000D01*
X93805000Y-123195000D02*
X92480000Y-123195000D01*
X90400000Y-123195000D02*
X89075000Y-123195000D01*
X93788000Y-123235000D02*
X92480000Y-123235000D01*
X90400000Y-123235000D02*
X89092000Y-123235000D01*
X93769000Y-123275000D02*
X92480000Y-123275000D01*
X90400000Y-123275000D02*
X89111000Y-123275000D01*
X93750000Y-123315000D02*
X92480000Y-123315000D01*
X90400000Y-123315000D02*
X89130000Y-123315000D01*
X93730000Y-123355000D02*
X92480000Y-123355000D01*
X90400000Y-123355000D02*
X89150000Y-123355000D01*
X93708000Y-123395000D02*
X92480000Y-123395000D01*
X90400000Y-123395000D02*
X89172000Y-123395000D01*
X93687000Y-123435000D02*
X92480000Y-123435000D01*
X90400000Y-123435000D02*
X89193000Y-123435000D01*
X93664000Y-123475000D02*
X92480000Y-123475000D01*
X90400000Y-123475000D02*
X89216000Y-123475000D01*
X93640000Y-123515000D02*
X92480000Y-123515000D01*
X90400000Y-123515000D02*
X89240000Y-123515000D01*
X93615000Y-123555000D02*
X92480000Y-123555000D01*
X90400000Y-123555000D02*
X89265000Y-123555000D01*
X93589000Y-123595000D02*
X92480000Y-123595000D01*
X90400000Y-123595000D02*
X89291000Y-123595000D01*
X93562000Y-123635000D02*
X92480000Y-123635000D01*
X90400000Y-123635000D02*
X89318000Y-123635000D01*
X93535000Y-123675000D02*
X92480000Y-123675000D01*
X90400000Y-123675000D02*
X89345000Y-123675000D01*
X93505000Y-123715000D02*
X92480000Y-123715000D01*
X90400000Y-123715000D02*
X89375000Y-123715000D01*
X93475000Y-123755000D02*
X92480000Y-123755000D01*
X90400000Y-123755000D02*
X89405000Y-123755000D01*
X93444000Y-123795000D02*
X92480000Y-123795000D01*
X90400000Y-123795000D02*
X89436000Y-123795000D01*
X93411000Y-123835000D02*
X92480000Y-123835000D01*
X90400000Y-123835000D02*
X89469000Y-123835000D01*
X93377000Y-123875000D02*
X92480000Y-123875000D01*
X90400000Y-123875000D02*
X89503000Y-123875000D01*
X93341000Y-123915000D02*
X92480000Y-123915000D01*
X90400000Y-123915000D02*
X89539000Y-123915000D01*
X93304000Y-123955000D02*
X92480000Y-123955000D01*
X90400000Y-123955000D02*
X89576000Y-123955000D01*
X93266000Y-123995000D02*
X92480000Y-123995000D01*
X90400000Y-123995000D02*
X89614000Y-123995000D01*
X93225000Y-124035000D02*
X92480000Y-124035000D01*
X90400000Y-124035000D02*
X89655000Y-124035000D01*
X93183000Y-124075000D02*
X92480000Y-124075000D01*
X90400000Y-124075000D02*
X89697000Y-124075000D01*
X93139000Y-124115000D02*
X92480000Y-124115000D01*
X90400000Y-124115000D02*
X89741000Y-124115000D01*
X93093000Y-124155000D02*
X92480000Y-124155000D01*
X90400000Y-124155000D02*
X89787000Y-124155000D01*
X93045000Y-124195000D02*
X92480000Y-124195000D01*
X90400000Y-124195000D02*
X89835000Y-124195000D01*
X92994000Y-124235000D02*
X92480000Y-124235000D01*
X90400000Y-124235000D02*
X89886000Y-124235000D01*
X92940000Y-124275000D02*
X92480000Y-124275000D01*
X90400000Y-124275000D02*
X89940000Y-124275000D01*
X92883000Y-124315000D02*
X92480000Y-124315000D01*
X90400000Y-124315000D02*
X89997000Y-124315000D01*
X92823000Y-124355000D02*
X92480000Y-124355000D01*
X90400000Y-124355000D02*
X90057000Y-124355000D01*
X92759000Y-124395000D02*
X92480000Y-124395000D01*
X90400000Y-124395000D02*
X90121000Y-124395000D01*
X92691000Y-124435000D02*
X92480000Y-124435000D01*
X90400000Y-124435000D02*
X90189000Y-124435000D01*
X92618000Y-124475000D02*
X90262000Y-124475000D01*
X92538000Y-124515000D02*
X90342000Y-124515000D01*
X92451000Y-124555000D02*
X90429000Y-124555000D01*
X92355000Y-124595000D02*
X90525000Y-124595000D01*
X92245000Y-124635000D02*
X90635000Y-124635000D01*
X92117000Y-124675000D02*
X90763000Y-124675000D01*
X91958000Y-124715000D02*
X90922000Y-124715000D01*
X91724000Y-124755000D02*
X91156000Y-124755000D01*
X92915000Y-119349225D02*
X92915000Y-119849225D01*
X93165000Y-119599225D02*
X92665000Y-119599225D01*
%TO.C,C1*%
X94060000Y-129012000D02*
G75*
G03*
X94060000Y-129012000I-2620000J0D01*
G01*
X94020000Y-129012000D02*
X88860000Y-129012000D01*
X94020000Y-129052000D02*
X88860000Y-129052000D01*
X94019000Y-129092000D02*
X88861000Y-129092000D01*
X94018000Y-129132000D02*
X88862000Y-129132000D01*
X94016000Y-129172000D02*
X88864000Y-129172000D01*
X94013000Y-129212000D02*
X88867000Y-129212000D01*
X94009000Y-129252000D02*
X92480000Y-129252000D01*
X90400000Y-129252000D02*
X88871000Y-129252000D01*
X94005000Y-129292000D02*
X92480000Y-129292000D01*
X90400000Y-129292000D02*
X88875000Y-129292000D01*
X94001000Y-129332000D02*
X92480000Y-129332000D01*
X90400000Y-129332000D02*
X88879000Y-129332000D01*
X93996000Y-129372000D02*
X92480000Y-129372000D01*
X90400000Y-129372000D02*
X88884000Y-129372000D01*
X93990000Y-129412000D02*
X92480000Y-129412000D01*
X90400000Y-129412000D02*
X88890000Y-129412000D01*
X93983000Y-129452000D02*
X92480000Y-129452000D01*
X90400000Y-129452000D02*
X88897000Y-129452000D01*
X93976000Y-129492000D02*
X92480000Y-129492000D01*
X90400000Y-129492000D02*
X88904000Y-129492000D01*
X93968000Y-129532000D02*
X92480000Y-129532000D01*
X90400000Y-129532000D02*
X88912000Y-129532000D01*
X93960000Y-129572000D02*
X92480000Y-129572000D01*
X90400000Y-129572000D02*
X88920000Y-129572000D01*
X93951000Y-129612000D02*
X92480000Y-129612000D01*
X90400000Y-129612000D02*
X88929000Y-129612000D01*
X93941000Y-129652000D02*
X92480000Y-129652000D01*
X90400000Y-129652000D02*
X88939000Y-129652000D01*
X93931000Y-129692000D02*
X92480000Y-129692000D01*
X90400000Y-129692000D02*
X88949000Y-129692000D01*
X93920000Y-129733000D02*
X92480000Y-129733000D01*
X90400000Y-129733000D02*
X88960000Y-129733000D01*
X93908000Y-129773000D02*
X92480000Y-129773000D01*
X90400000Y-129773000D02*
X88972000Y-129773000D01*
X93895000Y-129813000D02*
X92480000Y-129813000D01*
X90400000Y-129813000D02*
X88985000Y-129813000D01*
X93882000Y-129853000D02*
X92480000Y-129853000D01*
X90400000Y-129853000D02*
X88998000Y-129853000D01*
X93868000Y-129893000D02*
X92480000Y-129893000D01*
X90400000Y-129893000D02*
X89012000Y-129893000D01*
X93854000Y-129933000D02*
X92480000Y-129933000D01*
X90400000Y-129933000D02*
X89026000Y-129933000D01*
X93838000Y-129973000D02*
X92480000Y-129973000D01*
X90400000Y-129973000D02*
X89042000Y-129973000D01*
X93822000Y-130013000D02*
X92480000Y-130013000D01*
X90400000Y-130013000D02*
X89058000Y-130013000D01*
X93805000Y-130053000D02*
X92480000Y-130053000D01*
X90400000Y-130053000D02*
X89075000Y-130053000D01*
X93788000Y-130093000D02*
X92480000Y-130093000D01*
X90400000Y-130093000D02*
X89092000Y-130093000D01*
X93769000Y-130133000D02*
X92480000Y-130133000D01*
X90400000Y-130133000D02*
X89111000Y-130133000D01*
X93750000Y-130173000D02*
X92480000Y-130173000D01*
X90400000Y-130173000D02*
X89130000Y-130173000D01*
X93730000Y-130213000D02*
X92480000Y-130213000D01*
X90400000Y-130213000D02*
X89150000Y-130213000D01*
X93708000Y-130253000D02*
X92480000Y-130253000D01*
X90400000Y-130253000D02*
X89172000Y-130253000D01*
X93687000Y-130293000D02*
X92480000Y-130293000D01*
X90400000Y-130293000D02*
X89193000Y-130293000D01*
X93664000Y-130333000D02*
X92480000Y-130333000D01*
X90400000Y-130333000D02*
X89216000Y-130333000D01*
X93640000Y-130373000D02*
X92480000Y-130373000D01*
X90400000Y-130373000D02*
X89240000Y-130373000D01*
X93615000Y-130413000D02*
X92480000Y-130413000D01*
X90400000Y-130413000D02*
X89265000Y-130413000D01*
X93589000Y-130453000D02*
X92480000Y-130453000D01*
X90400000Y-130453000D02*
X89291000Y-130453000D01*
X93562000Y-130493000D02*
X92480000Y-130493000D01*
X90400000Y-130493000D02*
X89318000Y-130493000D01*
X93535000Y-130533000D02*
X92480000Y-130533000D01*
X90400000Y-130533000D02*
X89345000Y-130533000D01*
X93505000Y-130573000D02*
X92480000Y-130573000D01*
X90400000Y-130573000D02*
X89375000Y-130573000D01*
X93475000Y-130613000D02*
X92480000Y-130613000D01*
X90400000Y-130613000D02*
X89405000Y-130613000D01*
X93444000Y-130653000D02*
X92480000Y-130653000D01*
X90400000Y-130653000D02*
X89436000Y-130653000D01*
X93411000Y-130693000D02*
X92480000Y-130693000D01*
X90400000Y-130693000D02*
X89469000Y-130693000D01*
X93377000Y-130733000D02*
X92480000Y-130733000D01*
X90400000Y-130733000D02*
X89503000Y-130733000D01*
X93341000Y-130773000D02*
X92480000Y-130773000D01*
X90400000Y-130773000D02*
X89539000Y-130773000D01*
X93304000Y-130813000D02*
X92480000Y-130813000D01*
X90400000Y-130813000D02*
X89576000Y-130813000D01*
X93266000Y-130853000D02*
X92480000Y-130853000D01*
X90400000Y-130853000D02*
X89614000Y-130853000D01*
X93225000Y-130893000D02*
X92480000Y-130893000D01*
X90400000Y-130893000D02*
X89655000Y-130893000D01*
X93183000Y-130933000D02*
X92480000Y-130933000D01*
X90400000Y-130933000D02*
X89697000Y-130933000D01*
X93139000Y-130973000D02*
X92480000Y-130973000D01*
X90400000Y-130973000D02*
X89741000Y-130973000D01*
X93093000Y-131013000D02*
X92480000Y-131013000D01*
X90400000Y-131013000D02*
X89787000Y-131013000D01*
X93045000Y-131053000D02*
X92480000Y-131053000D01*
X90400000Y-131053000D02*
X89835000Y-131053000D01*
X92994000Y-131093000D02*
X92480000Y-131093000D01*
X90400000Y-131093000D02*
X89886000Y-131093000D01*
X92940000Y-131133000D02*
X92480000Y-131133000D01*
X90400000Y-131133000D02*
X89940000Y-131133000D01*
X92883000Y-131173000D02*
X92480000Y-131173000D01*
X90400000Y-131173000D02*
X89997000Y-131173000D01*
X92823000Y-131213000D02*
X92480000Y-131213000D01*
X90400000Y-131213000D02*
X90057000Y-131213000D01*
X92759000Y-131253000D02*
X92480000Y-131253000D01*
X90400000Y-131253000D02*
X90121000Y-131253000D01*
X92691000Y-131293000D02*
X92480000Y-131293000D01*
X90400000Y-131293000D02*
X90189000Y-131293000D01*
X92618000Y-131333000D02*
X90262000Y-131333000D01*
X92538000Y-131373000D02*
X90342000Y-131373000D01*
X92451000Y-131413000D02*
X90429000Y-131413000D01*
X92355000Y-131453000D02*
X90525000Y-131453000D01*
X92245000Y-131493000D02*
X90635000Y-131493000D01*
X92117000Y-131533000D02*
X90763000Y-131533000D01*
X91958000Y-131573000D02*
X90922000Y-131573000D01*
X91724000Y-131613000D02*
X91156000Y-131613000D01*
X92915000Y-126207225D02*
X92915000Y-126707225D01*
X93165000Y-126457225D02*
X92665000Y-126457225D01*
%TO.C,J2*%
X55216000Y-89776000D02*
X55216000Y-90991000D01*
X55156000Y-85816000D02*
X55156000Y-83556000D01*
X54656000Y-85816000D02*
X54656000Y-83556000D01*
X52056000Y-87416000D02*
X51056000Y-87416000D01*
X52056000Y-85816000D02*
X52056000Y-87416000D01*
X51056000Y-85816000D02*
X52056000Y-85816000D01*
X51056000Y-87416000D02*
X51056000Y-85816000D01*
X54656000Y-87416000D02*
X55656000Y-87416000D01*
X54656000Y-85816000D02*
X54656000Y-87416000D01*
X55656000Y-85816000D02*
X54656000Y-85816000D01*
X55656000Y-87416000D02*
X55656000Y-85816000D01*
X50296000Y-89776000D02*
X51216000Y-89776000D01*
X56416000Y-89776000D02*
X55496000Y-89776000D01*
X52856000Y-87916000D02*
X52856000Y-83556000D01*
X53856000Y-87916000D02*
X52856000Y-87916000D01*
X53856000Y-83556000D02*
X53856000Y-87916000D01*
X51216000Y-89776000D02*
X51496000Y-89776000D01*
X51216000Y-91376000D02*
X51216000Y-89776000D01*
X50296000Y-91376000D02*
X51216000Y-91376000D01*
X50296000Y-83556000D02*
X50296000Y-91376000D01*
X56416000Y-83556000D02*
X50296000Y-83556000D01*
X56416000Y-91376000D02*
X56416000Y-83556000D01*
X55496000Y-91376000D02*
X56416000Y-91376000D01*
X55496000Y-89776000D02*
X55496000Y-91376000D01*
X55216000Y-89776000D02*
X55496000Y-89776000D01*
%TO.C,J1*%
X79190000Y-150564000D02*
X79190000Y-147904000D01*
X79190000Y-150564000D02*
X86870000Y-150564000D01*
X86870000Y-150564000D02*
X86870000Y-147904000D01*
X79190000Y-147904000D02*
X86870000Y-147904000D01*
X76590000Y-147904000D02*
X77920000Y-147904000D01*
X76590000Y-149234000D02*
X76590000Y-147904000D01*
%TO.C,F1*%
X118276000Y-142478000D02*
X113655000Y-142478000D01*
X111897000Y-142478000D02*
X97076000Y-142478000D01*
X118276000Y-139278000D02*
X103454000Y-139278000D01*
X101697000Y-139278000D02*
X97076000Y-139278000D01*
X118276000Y-142478000D02*
X118276000Y-139278000D01*
X97076000Y-142478000D02*
X97076000Y-139278000D01*
%TO.C,J7*%
X43010000Y-150590000D02*
X43010000Y-147930000D01*
X43010000Y-150590000D02*
X68470000Y-150590000D01*
X68470000Y-150590000D02*
X68470000Y-147930000D01*
X43010000Y-147930000D02*
X68470000Y-147930000D01*
X40410000Y-147930000D02*
X41740000Y-147930000D01*
X40410000Y-149260000D02*
X40410000Y-147930000D01*
%TO.C,J6*%
X113540000Y-134740000D02*
X122080000Y-134740000D01*
X122080000Y-134740000D02*
X122080000Y-120020000D01*
X113540000Y-120020000D02*
X122080000Y-120020000D01*
X107860000Y-134740000D02*
X107860000Y-120020000D01*
X107860000Y-134740000D02*
X109840000Y-134740000D01*
X109840000Y-120020000D02*
X107860000Y-120020000D01*
X106980000Y-131380000D02*
X107480000Y-130880000D01*
X107480000Y-130880000D02*
X106980000Y-130380000D01*
X106980000Y-130380000D02*
X106980000Y-131380000D01*
%TO.C,J3*%
X79934000Y-126746000D02*
X77274000Y-126746000D01*
X79934000Y-126746000D02*
X79934000Y-121606000D01*
X79934000Y-121606000D02*
X77274000Y-121606000D01*
X77274000Y-126746000D02*
X77274000Y-121606000D01*
X77274000Y-129346000D02*
X77274000Y-128016000D01*
X78604000Y-129346000D02*
X77274000Y-129346000D01*
%TO.C,H5*%
D10*
X83566095Y-159202380D02*
X83566095Y-158202380D01*
X83566095Y-158678571D02*
X84137523Y-158678571D01*
X84137523Y-159202380D02*
X84137523Y-158202380D01*
X85089904Y-158202380D02*
X84613714Y-158202380D01*
X84566095Y-158678571D01*
X84613714Y-158630952D01*
X84708952Y-158583333D01*
X84947047Y-158583333D01*
X85042285Y-158630952D01*
X85089904Y-158678571D01*
X85137523Y-158773809D01*
X85137523Y-159011904D01*
X85089904Y-159107142D01*
X85042285Y-159154761D01*
X84947047Y-159202380D01*
X84708952Y-159202380D01*
X84613714Y-159154761D01*
X84566095Y-159107142D01*
%TO.C,H4*%
X57658095Y-159202380D02*
X57658095Y-158202380D01*
X57658095Y-158678571D02*
X58229523Y-158678571D01*
X58229523Y-159202380D02*
X58229523Y-158202380D01*
X59134285Y-158535714D02*
X59134285Y-159202380D01*
X58896190Y-158154761D02*
X58658095Y-158869047D01*
X59277142Y-158869047D01*
%TO.C,H6*%
X109728095Y-159202380D02*
X109728095Y-158202380D01*
X109728095Y-158678571D02*
X110299523Y-158678571D01*
X110299523Y-159202380D02*
X110299523Y-158202380D01*
X111204285Y-158202380D02*
X111013809Y-158202380D01*
X110918571Y-158250000D01*
X110870952Y-158297619D01*
X110775714Y-158440476D01*
X110728095Y-158630952D01*
X110728095Y-159011904D01*
X110775714Y-159107142D01*
X110823333Y-159154761D01*
X110918571Y-159202380D01*
X111109047Y-159202380D01*
X111204285Y-159154761D01*
X111251904Y-159107142D01*
X111299523Y-159011904D01*
X111299523Y-158773809D01*
X111251904Y-158678571D01*
X111204285Y-158630952D01*
X111109047Y-158583333D01*
X110918571Y-158583333D01*
X110823333Y-158630952D01*
X110775714Y-158678571D01*
X110728095Y-158773809D01*
%TO.C,H3*%
X31242095Y-158948380D02*
X31242095Y-157948380D01*
X31242095Y-158424571D02*
X31813523Y-158424571D01*
X31813523Y-158948380D02*
X31813523Y-157948380D01*
X32194476Y-157948380D02*
X32813523Y-157948380D01*
X32480190Y-158329333D01*
X32623047Y-158329333D01*
X32718285Y-158376952D01*
X32765904Y-158424571D01*
X32813523Y-158519809D01*
X32813523Y-158757904D01*
X32765904Y-158853142D01*
X32718285Y-158900761D01*
X32623047Y-158948380D01*
X32337333Y-158948380D01*
X32242095Y-158900761D01*
X32194476Y-158853142D01*
%TO.C,J4*%
X99274666Y-93088380D02*
X99274666Y-93802666D01*
X99227047Y-93945523D01*
X99131809Y-94040761D01*
X98988952Y-94088380D01*
X98893714Y-94088380D01*
X100179428Y-93421714D02*
X100179428Y-94088380D01*
X99941333Y-93040761D02*
X99703238Y-93755047D01*
X100322285Y-93755047D01*
%TO.C,BT1*%
X36504571Y-115847714D02*
X36552190Y-115704857D01*
X36599809Y-115657238D01*
X36695047Y-115609619D01*
X36837904Y-115609619D01*
X36933142Y-115657238D01*
X36980761Y-115704857D01*
X37028380Y-115800095D01*
X37028380Y-116181047D01*
X36028380Y-116181047D01*
X36028380Y-115847714D01*
X36076000Y-115752476D01*
X36123619Y-115704857D01*
X36218857Y-115657238D01*
X36314095Y-115657238D01*
X36409333Y-115704857D01*
X36456952Y-115752476D01*
X36504571Y-115847714D01*
X36504571Y-116181047D01*
X36028380Y-115323904D02*
X36028380Y-114752476D01*
X37028380Y-115038190D02*
X36028380Y-115038190D01*
X37028380Y-113895333D02*
X37028380Y-114466761D01*
X37028380Y-114181047D02*
X36028380Y-114181047D01*
X36171238Y-114276285D01*
X36266476Y-114371523D01*
X36314095Y-114466761D01*
%TO.C,R4*%
X113117333Y-150058380D02*
X112784000Y-149582190D01*
X112545904Y-150058380D02*
X112545904Y-149058380D01*
X112926857Y-149058380D01*
X113022095Y-149106000D01*
X113069714Y-149153619D01*
X113117333Y-149248857D01*
X113117333Y-149391714D01*
X113069714Y-149486952D01*
X113022095Y-149534571D01*
X112926857Y-149582190D01*
X112545904Y-149582190D01*
X113974476Y-149391714D02*
X113974476Y-150058380D01*
X113736380Y-149010761D02*
X113498285Y-149725047D01*
X114117333Y-149725047D01*
X102894000Y-149645714D02*
X102894000Y-150312380D01*
X102655904Y-149264761D02*
X102417809Y-149979047D01*
X103036857Y-149979047D01*
X103465428Y-150312380D02*
X103655904Y-150312380D01*
X103751142Y-150264761D01*
X103798761Y-150217142D01*
X103894000Y-150074285D01*
X103941619Y-149883809D01*
X103941619Y-149502857D01*
X103894000Y-149407619D01*
X103846380Y-149360000D01*
X103751142Y-149312380D01*
X103560666Y-149312380D01*
X103465428Y-149360000D01*
X103417809Y-149407619D01*
X103370190Y-149502857D01*
X103370190Y-149740952D01*
X103417809Y-149836190D01*
X103465428Y-149883809D01*
X103560666Y-149931428D01*
X103751142Y-149931428D01*
X103846380Y-149883809D01*
X103894000Y-149836190D01*
X103941619Y-149740952D01*
X104370190Y-150217142D02*
X104417809Y-150264761D01*
X104370190Y-150312380D01*
X104322571Y-150264761D01*
X104370190Y-150217142D01*
X104370190Y-150312380D01*
X104894000Y-150312380D02*
X105084476Y-150312380D01*
X105179714Y-150264761D01*
X105227333Y-150217142D01*
X105322571Y-150074285D01*
X105370190Y-149883809D01*
X105370190Y-149502857D01*
X105322571Y-149407619D01*
X105274952Y-149360000D01*
X105179714Y-149312380D01*
X104989238Y-149312380D01*
X104894000Y-149360000D01*
X104846380Y-149407619D01*
X104798761Y-149502857D01*
X104798761Y-149740952D01*
X104846380Y-149836190D01*
X104894000Y-149883809D01*
X104989238Y-149931428D01*
X105179714Y-149931428D01*
X105274952Y-149883809D01*
X105322571Y-149836190D01*
X105370190Y-149740952D01*
X105798761Y-150312380D02*
X105798761Y-149312380D01*
X106370190Y-150312380D02*
X105941619Y-149740952D01*
X106370190Y-149312380D02*
X105798761Y-149883809D01*
%TO.C,R3*%
X103211333Y-119756380D02*
X102878000Y-119280190D01*
X102639904Y-119756380D02*
X102639904Y-118756380D01*
X103020857Y-118756380D01*
X103116095Y-118804000D01*
X103163714Y-118851619D01*
X103211333Y-118946857D01*
X103211333Y-119089714D01*
X103163714Y-119184952D01*
X103116095Y-119232571D01*
X103020857Y-119280190D01*
X102639904Y-119280190D01*
X103544666Y-118756380D02*
X104163714Y-118756380D01*
X103830380Y-119137333D01*
X103973238Y-119137333D01*
X104068476Y-119184952D01*
X104116095Y-119232571D01*
X104163714Y-119327809D01*
X104163714Y-119565904D01*
X104116095Y-119661142D01*
X104068476Y-119708761D01*
X103973238Y-119756380D01*
X103687523Y-119756380D01*
X103592285Y-119708761D01*
X103544666Y-119661142D01*
X102830380Y-129325523D02*
X102830380Y-128658857D01*
X103830380Y-129087428D01*
X102830380Y-127801714D02*
X102830380Y-128277904D01*
X103306571Y-128325523D01*
X103258952Y-128277904D01*
X103211333Y-128182666D01*
X103211333Y-127944571D01*
X103258952Y-127849333D01*
X103306571Y-127801714D01*
X103401809Y-127754095D01*
X103639904Y-127754095D01*
X103735142Y-127801714D01*
X103782761Y-127849333D01*
X103830380Y-127944571D01*
X103830380Y-128182666D01*
X103782761Y-128277904D01*
X103735142Y-128325523D01*
X103830380Y-127325523D02*
X102830380Y-127325523D01*
X103830380Y-126754095D02*
X103258952Y-127182666D01*
X102830380Y-126754095D02*
X103401809Y-127325523D01*
%TO.C,R2*%
X113117333Y-145994380D02*
X112784000Y-145518190D01*
X112545904Y-145994380D02*
X112545904Y-144994380D01*
X112926857Y-144994380D01*
X113022095Y-145042000D01*
X113069714Y-145089619D01*
X113117333Y-145184857D01*
X113117333Y-145327714D01*
X113069714Y-145422952D01*
X113022095Y-145470571D01*
X112926857Y-145518190D01*
X112545904Y-145518190D01*
X113498285Y-145089619D02*
X113545904Y-145042000D01*
X113641142Y-144994380D01*
X113879238Y-144994380D01*
X113974476Y-145042000D01*
X114022095Y-145089619D01*
X114069714Y-145184857D01*
X114069714Y-145280095D01*
X114022095Y-145422952D01*
X113450666Y-145994380D01*
X114069714Y-145994380D01*
X102894000Y-145247714D02*
X102894000Y-145914380D01*
X102655904Y-144866761D02*
X102417809Y-145581047D01*
X103036857Y-145581047D01*
X103465428Y-145914380D02*
X103655904Y-145914380D01*
X103751142Y-145866761D01*
X103798761Y-145819142D01*
X103894000Y-145676285D01*
X103941619Y-145485809D01*
X103941619Y-145104857D01*
X103894000Y-145009619D01*
X103846380Y-144962000D01*
X103751142Y-144914380D01*
X103560666Y-144914380D01*
X103465428Y-144962000D01*
X103417809Y-145009619D01*
X103370190Y-145104857D01*
X103370190Y-145342952D01*
X103417809Y-145438190D01*
X103465428Y-145485809D01*
X103560666Y-145533428D01*
X103751142Y-145533428D01*
X103846380Y-145485809D01*
X103894000Y-145438190D01*
X103941619Y-145342952D01*
X104370190Y-145819142D02*
X104417809Y-145866761D01*
X104370190Y-145914380D01*
X104322571Y-145866761D01*
X104370190Y-145819142D01*
X104370190Y-145914380D01*
X104894000Y-145914380D02*
X105084476Y-145914380D01*
X105179714Y-145866761D01*
X105227333Y-145819142D01*
X105322571Y-145676285D01*
X105370190Y-145485809D01*
X105370190Y-145104857D01*
X105322571Y-145009619D01*
X105274952Y-144962000D01*
X105179714Y-144914380D01*
X104989238Y-144914380D01*
X104894000Y-144962000D01*
X104846380Y-145009619D01*
X104798761Y-145104857D01*
X104798761Y-145342952D01*
X104846380Y-145438190D01*
X104894000Y-145485809D01*
X104989238Y-145533428D01*
X105179714Y-145533428D01*
X105274952Y-145485809D01*
X105322571Y-145438190D01*
X105370190Y-145342952D01*
X105798761Y-145914380D02*
X105798761Y-144914380D01*
X106370190Y-145914380D02*
X105941619Y-145342952D01*
X106370190Y-144914380D02*
X105798761Y-145485809D01*
%TO.C,R1*%
X98617333Y-119656380D02*
X98284000Y-119180190D01*
X98045904Y-119656380D02*
X98045904Y-118656380D01*
X98426857Y-118656380D01*
X98522095Y-118704000D01*
X98569714Y-118751619D01*
X98617333Y-118846857D01*
X98617333Y-118989714D01*
X98569714Y-119084952D01*
X98522095Y-119132571D01*
X98426857Y-119180190D01*
X98045904Y-119180190D01*
X99569714Y-119656380D02*
X98998285Y-119656380D01*
X99284000Y-119656380D02*
X99284000Y-118656380D01*
X99188761Y-118799238D01*
X99093523Y-118894476D01*
X98998285Y-118942095D01*
X98236380Y-129403523D02*
X98236380Y-128736857D01*
X99236380Y-129165428D01*
X98236380Y-127879714D02*
X98236380Y-128355904D01*
X98712571Y-128403523D01*
X98664952Y-128355904D01*
X98617333Y-128260666D01*
X98617333Y-128022571D01*
X98664952Y-127927333D01*
X98712571Y-127879714D01*
X98807809Y-127832095D01*
X99045904Y-127832095D01*
X99141142Y-127879714D01*
X99188761Y-127927333D01*
X99236380Y-128022571D01*
X99236380Y-128260666D01*
X99188761Y-128355904D01*
X99141142Y-128403523D01*
X99236380Y-127403523D02*
X98236380Y-127403523D01*
X99236380Y-126832095D02*
X98664952Y-127260666D01*
X98236380Y-126832095D02*
X98807809Y-127403523D01*
%TO.C,D1*%
X91463904Y-152852380D02*
X91463904Y-151852380D01*
X91702000Y-151852380D01*
X91844857Y-151900000D01*
X91940095Y-151995238D01*
X91987714Y-152090476D01*
X92035333Y-152280952D01*
X92035333Y-152423809D01*
X91987714Y-152614285D01*
X91940095Y-152709523D01*
X91844857Y-152804761D01*
X91702000Y-152852380D01*
X91463904Y-152852380D01*
X92987714Y-152852380D02*
X92416285Y-152852380D01*
X92702000Y-152852380D02*
X92702000Y-151852380D01*
X92606761Y-151995238D01*
X92511523Y-152090476D01*
X92416285Y-152138095D01*
X95054380Y-136913904D02*
X94054380Y-136913904D01*
X95054380Y-136342476D02*
X94482952Y-136771047D01*
X94054380Y-136342476D02*
X94625809Y-136913904D01*
%TO.C,C2*%
X88479333Y-119737142D02*
X88431714Y-119784761D01*
X88288857Y-119832380D01*
X88193619Y-119832380D01*
X88050761Y-119784761D01*
X87955523Y-119689523D01*
X87907904Y-119594285D01*
X87860285Y-119403809D01*
X87860285Y-119260952D01*
X87907904Y-119070476D01*
X87955523Y-118975238D01*
X88050761Y-118880000D01*
X88193619Y-118832380D01*
X88288857Y-118832380D01*
X88431714Y-118880000D01*
X88479333Y-118927619D01*
X88860285Y-118927619D02*
X88907904Y-118880000D01*
X89003142Y-118832380D01*
X89241238Y-118832380D01*
X89336476Y-118880000D01*
X89384095Y-118927619D01*
X89431714Y-119022857D01*
X89431714Y-119118095D01*
X89384095Y-119260952D01*
X88812666Y-119832380D01*
X89431714Y-119832380D01*
%TO.C,C1*%
X88225333Y-126849142D02*
X88177714Y-126896761D01*
X88034857Y-126944380D01*
X87939619Y-126944380D01*
X87796761Y-126896761D01*
X87701523Y-126801523D01*
X87653904Y-126706285D01*
X87606285Y-126515809D01*
X87606285Y-126372952D01*
X87653904Y-126182476D01*
X87701523Y-126087238D01*
X87796761Y-125992000D01*
X87939619Y-125944380D01*
X88034857Y-125944380D01*
X88177714Y-125992000D01*
X88225333Y-126039619D01*
X89177714Y-126944380D02*
X88606285Y-126944380D01*
X88892000Y-126944380D02*
X88892000Y-125944380D01*
X88796761Y-126087238D01*
X88701523Y-126182476D01*
X88606285Y-126230095D01*
%TO.C,J2*%
X53022666Y-91918380D02*
X53022666Y-92632666D01*
X52975047Y-92775523D01*
X52879809Y-92870761D01*
X52736952Y-92918380D01*
X52641714Y-92918380D01*
X53451238Y-92013619D02*
X53498857Y-91966000D01*
X53594095Y-91918380D01*
X53832190Y-91918380D01*
X53927428Y-91966000D01*
X53975047Y-92013619D01*
X54022666Y-92108857D01*
X54022666Y-92204095D01*
X53975047Y-92346952D01*
X53403619Y-92918380D01*
X54022666Y-92918380D01*
%TO.C,J1*%
X81454666Y-145756380D02*
X81454666Y-146470666D01*
X81407047Y-146613523D01*
X81311809Y-146708761D01*
X81168952Y-146756380D01*
X81073714Y-146756380D01*
X82454666Y-146756380D02*
X81883238Y-146756380D01*
X82168952Y-146756380D02*
X82168952Y-145756380D01*
X82073714Y-145899238D01*
X81978476Y-145994476D01*
X81883238Y-146042095D01*
%TO.C,F1*%
X119554666Y-140898571D02*
X119221333Y-140898571D01*
X119221333Y-141422380D02*
X119221333Y-140422380D01*
X119697523Y-140422380D01*
X120602285Y-141422380D02*
X120030857Y-141422380D01*
X120316571Y-141422380D02*
X120316571Y-140422380D01*
X120221333Y-140565238D01*
X120126095Y-140660476D01*
X120030857Y-140708095D01*
%TO.C,J7*%
X53514666Y-145502380D02*
X53514666Y-146216666D01*
X53467047Y-146359523D01*
X53371809Y-146454761D01*
X53228952Y-146502380D01*
X53133714Y-146502380D01*
X53895619Y-145502380D02*
X54562285Y-145502380D01*
X54133714Y-146502380D01*
%TO.C,H2*%
X108966095Y-92908380D02*
X108966095Y-91908380D01*
X108966095Y-92384571D02*
X109537523Y-92384571D01*
X109537523Y-92908380D02*
X109537523Y-91908380D01*
X109966095Y-92003619D02*
X110013714Y-91956000D01*
X110108952Y-91908380D01*
X110347047Y-91908380D01*
X110442285Y-91956000D01*
X110489904Y-92003619D01*
X110537523Y-92098857D01*
X110537523Y-92194095D01*
X110489904Y-92336952D01*
X109918476Y-92908380D01*
X110537523Y-92908380D01*
%TO.C,H1*%
X42926095Y-92908380D02*
X42926095Y-91908380D01*
X42926095Y-92384571D02*
X43497523Y-92384571D01*
X43497523Y-92908380D02*
X43497523Y-91908380D01*
X44497523Y-92908380D02*
X43926095Y-92908380D01*
X44211809Y-92908380D02*
X44211809Y-91908380D01*
X44116571Y-92051238D01*
X44021333Y-92146476D01*
X43926095Y-92194095D01*
%TO.C,J6*%
X108124666Y-118324380D02*
X108124666Y-119038666D01*
X108077047Y-119181523D01*
X107981809Y-119276761D01*
X107838952Y-119324380D01*
X107743714Y-119324380D01*
X109029428Y-118324380D02*
X108838952Y-118324380D01*
X108743714Y-118372000D01*
X108696095Y-118419619D01*
X108600857Y-118562476D01*
X108553238Y-118752952D01*
X108553238Y-119133904D01*
X108600857Y-119229142D01*
X108648476Y-119276761D01*
X108743714Y-119324380D01*
X108934190Y-119324380D01*
X109029428Y-119276761D01*
X109077047Y-119229142D01*
X109124666Y-119133904D01*
X109124666Y-118895809D01*
X109077047Y-118800571D01*
X109029428Y-118752952D01*
X108934190Y-118705333D01*
X108743714Y-118705333D01*
X108648476Y-118752952D01*
X108600857Y-118800571D01*
X108553238Y-118895809D01*
%TO.C,J3*%
X75144380Y-126063333D02*
X75858666Y-126063333D01*
X76001523Y-126110952D01*
X76096761Y-126206190D01*
X76144380Y-126349047D01*
X76144380Y-126444285D01*
X75144380Y-125682380D02*
X75144380Y-125063333D01*
X75525333Y-125396666D01*
X75525333Y-125253809D01*
X75572952Y-125158571D01*
X75620571Y-125110952D01*
X75715809Y-125063333D01*
X75953904Y-125063333D01*
X76049142Y-125110952D01*
X76096761Y-125158571D01*
X76144380Y-125253809D01*
X76144380Y-125539523D01*
X76096761Y-125634761D01*
X76049142Y-125682380D01*
%TD*%
M02*
